<svg width="44" height="42" viewBox="0 0 44 42" fill="none" xmlns="http://www.w3.org/2000/svg">
<mask id="mask0_576_5588" style="mask-type:alpha" maskUnits="userSpaceOnUse" x="1" y="2" width="42" height="39">
<ellipse cx="22" cy="21.25" rx="20.5" ry="19.25" fill="#D2504A"/>
</mask>
<g mask="url(#mask0_576_5588)">
<path d="M17.15 2.48584C17.1945 2.58613 17.1764 2.7078 17.1868 2.81445C17.2265 3.22314 17.3489 3.62056 17.4559 4.01557" stroke="#979797" stroke-width="1.5" stroke-linecap="round"/>
<path d="M19.5466 1.87378C19.3352 2.72654 19.2002 3.58099 19.0621 4.44883" stroke="#979797" stroke-width="1.5" stroke-linecap="round"/>
<path d="M2.13227 19.6802C2.26694 19.6914 3.18214 20.3312 3.00762 20.4708C2.85789 20.5906 2.54844 20.7094 2.48367 20.9038C2.39428 21.1719 2.34263 21.277 2.13227 21.4873" stroke="#979797" stroke-width="1.5" stroke-linecap="round"/>
<path d="M7.32789 34.4198C7.40319 34.3445 7.44593 34.3069 7.55378 34.3069" stroke="#979797" stroke-width="1.5" stroke-linecap="round"/>
<path d="M8.68327 35.9447C9.01478 35.5227 9.30336 35.0657 9.64333 34.6458" stroke="#979797" stroke-width="1.5" stroke-linecap="round"/>
<path d="M25.7384 38.4861C25.7674 38.8194 25.8676 39.3361 26.0773 39.6156" stroke="#979797" stroke-width="1.5" stroke-linecap="round"/>
<path d="M27.715 38.26C27.9211 38.5005 28.0922 38.686 28.3362 38.8812" stroke="#979797" stroke-width="1.5" stroke-linecap="round"/>
<path d="M37.8927 8.8457C37.6573 8.85955 37.4702 9.06826 37.3046 9.21209C36.9079 9.55674 36.5365 9.90472 36.1747 10.2866" stroke="#979797" stroke-width="1.5" stroke-linecap="round"/>
</g>
<path d="M38.8976 9.45446C36.3461 6.1583 31.501 2.8884 27.1133 1.95164C22.7256 1.01489 17.0896 1.52656 13.4941 3.56852C11.9893 5.15565 5.4529 9.23258 3.6702 13.0006C1.88751 16.7686 0.811511 22.4426 2.00187 26.5889C3.19223 30.7353 7.00297 35.5897 10.8123 37.8787C14.6217 40.1677 20.3863 40.8718 24.8581 40.3231C29.33 39.7743 34.7066 37.6641 37.6435 34.5862C40.5804 31.5083 42.2799 26.0398 42.4798 21.8558C42.6798 17.6717 41.3898 12.9198 38.8432 9.48183" stroke="#979797" stroke-width="1.5"/>
</svg>
