<svg width="200" height="200" viewBox="0 0 200 200" fill="none" xmlns="http://www.w3.org/2000/svg">
<g filter="url(#filter0_ii_919_2702)">
<path d="M176 99C176 139.317 153 169.605 107.5 172.5C52.5 176 25 139.317 25 99C25 58.6832 58.8025 26 100.5 26C142.197 26 176 58.6832 176 99Z" fill="#F4BA4E"/>
</g>
<path d="M107.754 176.492C131.38 174.988 149.563 166.324 161.813 152.428C174.03 138.57 180 119.906 180 99C180 56.3482 144.279 22 100.5 22C56.7214 22 21 56.3482 21 99C21 120.042 28.1798 140.369 42.7942 155.007C57.4672 169.705 79.2714 178.304 107.754 176.492Z" stroke="black" stroke-width="8"/>
<path d="M36.803 145.027C40.5212 143.239 44.2605 142.068 48.0583 140.871" stroke="black" stroke-width="6" stroke-linecap="round"/>
<path d="M154.655 44.6937C150.625 47.1396 147.078 49.9681 143.469 52.8361" stroke="black" stroke-width="6" stroke-linecap="round"/>
<path d="M143.164 36.12C142.155 38.0437 140.934 39.6617 139.698 41.3091" stroke="black" stroke-width="6" stroke-linecap="round"/>
<path d="M33.9999 134.906C35.8404 133.21 37.6818 132.13 39.5521 131.025" stroke="black" stroke-width="6" stroke-linecap="round"/>
<path d="M72.7 97C78.94 97 84.4 91.4 84.4 85C84.4 78.6 78.94 73 72.7 73C66.46 73 61 78.6 61 85C61 91.4 66.46 97 72.7 97Z" fill="black"/>
<path d="M140 85C140 78.6 134.54 73 128.3 73C122.06 73 116.6 78.6 116.6 85C116.6 91.4 122.06 97 128.3 97C134.54 97 140 91.4 140 85Z" fill="black"/>
<path d="M139 111C126.59 123.074 93.8154 139.978 62 111" stroke="black" stroke-width="8" stroke-linecap="round"/>
<g filter="url(#filter1_i_919_2702)">
<path d="M148.287 158.559L151.791 171.733C152.318 173.714 155.13 173.714 155.657 171.733L159.159 158.566C159.349 157.849 159.921 157.296 160.644 157.13L174.505 153.949C176.576 153.474 176.576 150.526 174.505 150.051L160.644 146.87C159.921 146.704 159.349 146.151 159.159 145.434L155.657 132.267C155.13 130.286 152.318 130.286 151.791 132.267L148.287 145.441C148.097 146.155 147.53 146.705 146.812 146.874L133.285 150.053C131.228 150.536 131.228 153.464 133.285 153.947L146.812 157.126C147.53 157.295 148.097 157.845 148.287 158.559Z" fill="#FAE45B"/>
</g>
<path d="M147.925 172.761L144.73 160.745L132.37 157.841C126.2 156.391 126.2 147.609 132.37 146.159L144.73 143.255L147.925 131.239C149.506 125.295 157.941 125.295 159.522 131.239L162.714 143.241L175.4 146.152C181.611 147.577 181.611 156.423 175.4 157.848L162.714 160.759L159.522 172.761C157.941 178.705 149.506 178.705 147.925 172.761Z" stroke="black" stroke-width="8"/>
<g filter="url(#filter2_i_919_2702)">
<path d="M35.3651 55.6853L39.6617 65.7107C40.3544 67.3269 42.6456 67.3269 43.3383 65.7107L47.6349 55.6853C47.8372 55.2133 48.2133 54.8372 48.6853 54.6349L58.7107 50.3383C60.3269 49.6456 60.3269 47.3544 58.7107 46.6617L48.6853 42.3651C48.2133 42.1628 47.8372 41.7867 47.6349 41.3147L43.3383 31.2893C42.6456 29.6731 40.3544 29.6731 39.6617 31.2893L35.3651 41.3147C35.1628 41.7867 34.7867 42.1628 34.3147 42.3651L24.2893 46.6617C22.6731 47.3544 22.6731 49.6456 24.2893 50.3383L34.3147 54.6349C34.7867 54.8372 35.1628 55.2133 35.3651 55.6853Z" fill="#FAE45B"/>
</g>
<path d="M35.9851 67.2863L32.0037 57.9963L22.7137 54.0149C17.865 51.9369 17.865 45.0631 22.7137 42.9851L32.0037 39.0037L35.9851 29.7137C38.0631 24.865 44.9369 24.865 47.0149 29.7137L50.9963 39.0037L60.2863 42.9851C65.135 45.0631 65.135 51.9369 60.2863 54.0149L50.9963 57.9963L47.0149 67.2863C44.9369 72.135 38.0631 72.135 35.9851 67.2863Z" stroke="black" stroke-width="8"/>
<defs>
<filter id="filter0_ii_919_2702" x="17" y="18" width="167" height="162.731" filterUnits="userSpaceOnUse" color-interpolation-filters="sRGB">
<feFlood flood-opacity="0" result="BackgroundImageFix"/>
<feBlend mode="normal" in="SourceGraphic" in2="BackgroundImageFix" result="shape"/>
<feColorMatrix in="SourceAlpha" type="matrix" values="0 0 0 0 0 0 0 0 0 0 0 0 0 0 0 0 0 0 127 0" result="hardAlpha"/>
<feOffset dx="-16" dy="-12"/>
<feComposite in2="hardAlpha" operator="arithmetic" k2="-1" k3="1"/>
<feColorMatrix type="matrix" values="0 0 0 0 1 0 0 0 0 0.988235 0 0 0 0 0.913725 0 0 0 1 0"/>
<feBlend mode="normal" in2="shape" result="effect1_innerShadow_919_2702"/>
<feColorMatrix in="SourceAlpha" type="matrix" values="0 0 0 0 0 0 0 0 0 0 0 0 0 0 0 0 0 0 127 0" result="hardAlpha"/>
<feOffset dx="15" dy="14"/>
<feComposite in2="hardAlpha" operator="arithmetic" k2="-1" k3="1"/>
<feColorMatrix type="matrix" values="0 0 0 0 1 0 0 0 0 0.988235 0 0 0 0 0.913725 0 0 0 1 0"/>
<feBlend mode="normal" in2="effect1_innerShadow_919_2702" result="effect2_innerShadow_919_2702"/>
</filter>
<filter id="filter1_i_919_2702" x="123.743" y="122.781" width="60.3154" height="58.4374" filterUnits="userSpaceOnUse" color-interpolation-filters="sRGB">
<feFlood flood-opacity="0" result="BackgroundImageFix"/>
<feBlend mode="normal" in="SourceGraphic" in2="BackgroundImageFix" result="shape"/>
<feColorMatrix in="SourceAlpha" type="matrix" values="0 0 0 0 0 0 0 0 0 0 0 0 0 0 0 0 0 0 127 0" result="hardAlpha"/>
<feOffset dx="-8" dy="-9"/>
<feComposite in2="hardAlpha" operator="arithmetic" k2="-1" k3="1"/>
<feColorMatrix type="matrix" values="0 0 0 0 1 0 0 0 0 0.988235 0 0 0 0 0.913725 0 0 0 1 0"/>
<feBlend mode="normal" in2="shape" result="effect1_innerShadow_919_2702"/>
</filter>
<filter id="filter2_i_919_2702" x="15.0771" y="22.0772" width="52.8457" height="52.8456" filterUnits="userSpaceOnUse" color-interpolation-filters="sRGB">
<feFlood flood-opacity="0" result="BackgroundImageFix"/>
<feBlend mode="normal" in="SourceGraphic" in2="BackgroundImageFix" result="shape"/>
<feColorMatrix in="SourceAlpha" type="matrix" values="0 0 0 0 0 0 0 0 0 0 0 0 0 0 0 0 0 0 127 0" result="hardAlpha"/>
<feOffset dx="-8" dy="-9"/>
<feComposite in2="hardAlpha" operator="arithmetic" k2="-1" k3="1"/>
<feColorMatrix type="matrix" values="0 0 0 0 1 0 0 0 0 0.988235 0 0 0 0 0.913725 0 0 0 1 0"/>
<feBlend mode="normal" in2="shape" result="effect1_innerShadow_919_2702"/>
</filter>
</defs>
</svg>
