<svg width="200" height="200" viewBox="0 0 200 200" fill="none" xmlns="http://www.w3.org/2000/svg">
<g filter="url(#filter0_ii_919_2661)">
<path d="M175.163 123.884C176.023 120.521 179.76 104.313 173.5 98.5C166.5 92 149.5 97 146.5 97.5C143.5 98 137.5 99 132.5 103C130.448 104.642 128.48 106.788 126.873 108.749C124.98 111.06 120.996 111.05 118.774 109.053C117.15 107.594 115.059 106.097 112.5 105C105.759 102.111 95.3095 104.786 94.5445 104.988C94.5118 104.997 94.4861 105.003 94.4532 105.012C93.5603 105.232 80.1748 108.55 78 110C76.0954 111.27 81.3562 74.9215 83.0163 63.7314C83.2959 61.8468 84.8691 60.4348 86.7722 60.3442L90.9073 60.1473C92.7283 60.0606 94.3793 61.2141 95.0445 62.9114C96.7358 67.2266 100.358 74.9287 105 76C111.5 77.5 116.5 74.5 120.5 70.5C124.5 66.5 131.9 50.5 132.5 47.5C133.1 44.5 125.5 34 122 31.5C118.909 29.2921 110.748 27.4742 108.883 27.0795C108.626 27.025 108.367 27 108.104 27H92.0535C91.0542 27 90.0912 27.374 89.3538 28.0484L49.8107 64.2159C49.6042 64.4048 49.4225 64.6086 49.2604 64.8367C47.9494 66.6811 41.576 75.689 38.0001 81.5C34.0002 88 31.5 99.5 30 106.5C28.5 113.5 32 124.5 31.5 131C31 137.5 29.0001 139 24.5 150.5C19.9999 162 24 164 27 164.5C29.5701 164.928 42.7815 164.99 46.5158 164.999C47.1682 165 47.7861 165.152 48.3671 165.449C52.9256 167.778 74.3149 178.336 85.0001 177C97 175.5 117.5 168 124.5 167C131.5 166 165.5 172.5 172.5 163C178.2 155.264 176.938 148.854 176.272 146.74C176.116 146.243 175.988 145.732 175.963 145.211L175.03 125.148C175.01 124.719 175.057 124.3 175.163 123.884Z" fill="#D2504A"/>
</g>
<path d="M120.097 126.392C121.148 122.129 123.077 114.116 125 111M125 111C132.08 99.5286 142.922 98.1286 149 97.5C157.5 96.6209 172.124 95.2158 175.91 99.0529C177.277 100.439 177.863 106.667 177.978 115C178.039 119.384 176.566 124.35 176.412 129.5C176.259 134.615 178.775 137.912 178.5 143C178.272 147.218 176.668 153.292 176.412 157C176.242 159.449 176.59 161.197 174 164C171.41 166.803 166.753 165.796 160 166.845C156.143 167.444 152.916 167.952 148.5 168.194C145.406 168.363 142.219 168.347 139 168.194C135.855 168.044 132.709 167.199 128.838 167.03C127.949 166.991 127.06 167.093 126.188 167.267C120.902 168.316 117.184 168.765 113 170C107.97 171.484 107 174 102 175.5C96.5495 176.435 88.9638 176.554 85 176.373C65.9048 175.502 61.244 164.12 43.8768 165.722C18.2138 168.089 20.4018 153.571 24.5032 148.935C26.3961 147.975 29.4857 136.368 31 126.392C26.5 91.5 39.5085 77.4908 48.5 65.5C51.6988 62.1905 56.3709 57.6014 61.5 52.4498C64.898 49.0368 67.9965 44.1982 71.5 40.5C75.2261 36.5668 79.8446 34.2691 83 30.5C86.6804 26.1038 92.9824 23.6197 100.5 23.7319C107.017 23.8292 114.975 25.4576 121 28.5C128.043 32.0565 132.776 37.5289 134.5 44.5C133.89 47.3281 133.823 49.9794 133 52.4498C132.248 54.7065 129.896 56.8121 129 58.7637C128.04 60.8539 127.588 65.2673 126.5 67C123.957 71.0498 121.394 72.473 118.5 74.5C111.318 79.531 103.814 77.3202 99.7476 68.836C91.7025 52.0489 99.7476 53.0081 104.48 53.0081M125 111C116.295 103.395 96.3506 98.14 80.4174 112.483M53.8437 126.392C58.5 128.5 62.5 128.5 71 119.5C72.9838 116.621 78.2635 114.422 80.4174 112.483M80.4174 112.483C80.1904 105.477 80.2147 94.9538 80.9562 85C81.8392 73.1467 83.7394 62.1007 87.4435 58.7637C88.7054 57.6446 92.1758 56.4615 95.9617 60.6822" stroke="black" stroke-width="8" stroke-linecap="round"/>
<path d="M42.4963 77.7053C42.9759 78.3761 43.3164 79.1485 43.8537 79.7751C44.9855 81.0952 46.21 82.3259 47.4015 83.5874" stroke="black" stroke-width="6" stroke-linecap="round"/>
<path d="M49.0003 72.1241C50.0558 73.1822 51.1481 74.1862 52.2803 75.1635" stroke="black" stroke-width="6" stroke-linecap="round"/>
<path d="M52.4751 162.035C52.6469 161.675 52.9675 161.327 53.2078 160.989C54.1284 159.695 54.8935 158.334 55.6769 157" stroke="black" stroke-width="6" stroke-linecap="round"/>
<path d="M150.475 105.035C150.647 104.675 150.968 104.327 151.208 103.989C152.128 102.695 152.894 101.334 153.677 100" stroke="black" stroke-width="6" stroke-linecap="round"/>
<path d="M62.2732 168.908C64.1727 165.784 66.2025 162.754 68.2626 159.675" stroke="black" stroke-width="6" stroke-linecap="round"/>
<path d="M160.273 111.908C162.173 108.784 164.203 105.754 166.263 102.675" stroke="black" stroke-width="6" stroke-linecap="round"/>
<path d="M73.5 137.5C86 162 111.5 150 117.5 141.5C113.613 142.958 112.5 143 109.5 143.5C107.288 143.775 102.115 144.997 100 145C96.8506 145.005 93.5 145 88 143.5C79.5 141.5 77.0852 139.584 73.5 137.5Z" fill="#EE7C78"/>
<path d="M72 141C74.0819 143.751 75.1353 145.961 81 148C83.6383 148.917 87.6432 151.281 91 151.5C94.601 151.735 98.107 151.98 102.5 151C104.887 150.468 108.888 149.987 111.5 149C113.596 148.208 116.763 145.905 119 144.781" stroke="black" stroke-width="8" stroke-linecap="round"/>
<defs>
<filter id="filter0_ii_919_2661" x="22.4797" y="27" width="154.574" height="150.116" filterUnits="userSpaceOnUse" color-interpolation-filters="sRGB">
<feFlood flood-opacity="0" result="BackgroundImageFix"/>
<feBlend mode="normal" in="SourceGraphic" in2="BackgroundImageFix" result="shape"/>
<feColorMatrix in="SourceAlpha" type="matrix" values="0 0 0 0 0 0 0 0 0 0 0 0 0 0 0 0 0 0 127 0" result="hardAlpha"/>
<feOffset dy="9"/>
<feComposite in2="hardAlpha" operator="arithmetic" k2="-1" k3="1"/>
<feColorMatrix type="matrix" values="0 0 0 0 0.933333 0 0 0 0 0.486275 0 0 0 0 0.470588 0 0 0 1 0"/>
<feBlend mode="normal" in2="shape" result="effect1_innerShadow_919_2661"/>
<feColorMatrix in="SourceAlpha" type="matrix" values="0 0 0 0 0 0 0 0 0 0 0 0 0 0 0 0 0 0 127 0" result="hardAlpha"/>
<feOffset dx="7" dy="-6"/>
<feComposite in2="hardAlpha" operator="arithmetic" k2="-1" k3="1"/>
<feColorMatrix type="matrix" values="0 0 0 0 0.933333 0 0 0 0 0.486275 0 0 0 0 0.470588 0 0 0 1 0"/>
<feBlend mode="normal" in2="effect1_innerShadow_919_2661" result="effect2_innerShadow_919_2661"/>
</filter>
</defs>
</svg>
