<svg width="200" height="200" viewBox="0 0 200 200" fill="none" xmlns="http://www.w3.org/2000/svg">
<path d="M107.754 176.492C131.38 174.988 149.563 166.324 161.813 152.428C174.03 138.57 180 119.906 180 99C180 56.3482 144.279 22 100.5 22C56.7214 22 21 56.3482 21 99C21 120.042 28.1798 140.369 42.7942 155.007C57.4672 169.705 79.2714 178.304 107.754 176.492Z" fill="#BCF361" stroke="black" stroke-width="8"/>
<g filter="url(#filter0_ii_3294_2093)">
<path d="M163 99.1983C163 132.445 143.96 157.421 106.295 159.809C60.7649 162.695 38 132.445 38 99.1983C38 65.9517 65.9822 39 100.5 39C135.018 39 163 65.9517 163 99.1983Z" fill="#DFFFAA"/>
</g>
<path d="M106.453 162.304C125.83 161.076 140.667 154.006 150.644 142.733C160.601 131.482 165.5 116.291 165.5 99.1983C165.5 64.4834 136.309 36.5 100.5 36.5C64.6907 36.5 35.5 64.4834 35.5 99.1983C35.5 116.377 41.3836 132.925 53.3078 144.823C65.2677 156.757 83.077 163.786 106.453 162.304Z" stroke="black" stroke-width="5"/>
<path d="M46.9998 149C45.2169 151.017 43.2709 152.597 41.2965 154.208" stroke="black" stroke-width="6" stroke-linecap="round"/>
<path d="M111.23 45.9121C111.979 43.1508 113.212 40.5968 114.458 38.0001" stroke="black" stroke-width="6" stroke-linecap="round"/>
<path d="M121.076 49.7483C121.852 47.2404 122.858 45.6983 123.876 44.1194" stroke="black" stroke-width="6" stroke-linecap="round"/>
<path d="M80.805 158.521C81.4904 155.236 81.5902 152.143 81.6991 149" stroke="black" stroke-width="6" stroke-linecap="round"/>
<mask id="path-8-outside-1_3294_2093" maskUnits="userSpaceOnUse" x="52.0305" y="50.192" width="81.6254" height="78.9535" fill="black">
<rect fill="white" x="52.0305" y="50.192" width="81.6254" height="78.9535"/>
<path fill-rule="evenodd" clip-rule="evenodd" d="M65.5745 87.7147C61.2066 91.3697 60.6235 97.8779 64.2722 102.251L79.4376 120.428C80.7645 122.018 83.1282 122.23 84.7167 120.901L86.8865 119.085C88.4747 117.756 88.6866 115.39 87.36 113.8L76.7777 101.116C74.1241 97.9359 74.5482 93.2026 77.7249 90.5445L107.135 65.9347C108.723 64.6057 108.935 62.2396 107.609 60.6495L106.028 58.7546C104.701 57.1642 102.337 56.9524 100.749 58.2816L65.5745 87.7147Z"/>
</mask>
<path fill-rule="evenodd" clip-rule="evenodd" d="M65.5745 87.7147C61.2066 91.3697 60.6235 97.8779 64.2722 102.251L79.4376 120.428C80.7645 122.018 83.1282 122.23 84.7167 120.901L86.8865 119.085C88.4747 117.756 88.6866 115.39 87.36 113.8L76.7777 101.116C74.1241 97.9359 74.5482 93.2026 77.7249 90.5445L107.135 65.9347C108.723 64.6057 108.935 62.2396 107.609 60.6495L106.028 58.7546C104.701 57.1642 102.337 56.9524 100.749 58.2816L65.5745 87.7147Z" fill="#BCF361"/>
<path d="M64.2722 102.251L61.3959 104.657L64.2722 102.251ZM65.5745 87.7147L67.9773 90.5938L65.5745 87.7147ZM76.7777 101.116L79.654 98.7103L76.7777 101.116ZM77.7249 90.5445L80.1277 93.4236L77.7249 90.5445ZM107.609 60.6495L110.485 58.2434L107.609 60.6495ZM86.8865 119.085L89.2893 121.964L86.8865 119.085ZM106.028 58.7546L108.904 56.3485L106.028 58.7546ZM84.7167 120.901L82.3139 118.022L84.7167 120.901ZM67.1485 99.845C64.8264 97.0619 65.1975 92.9198 67.9773 90.5938L63.1717 84.8356C57.2156 89.8196 56.4205 98.6939 61.3959 104.657L67.1485 99.845ZM82.3139 118.022L67.1485 99.845L61.3959 104.657L76.5613 122.834L82.3139 118.022ZM84.4837 116.206L82.3139 118.022L87.1195 123.78L89.2893 121.964L84.4837 116.206ZM90.2363 111.394L79.654 98.7103L73.9014 103.522L84.4837 116.206L90.2363 111.394ZM79.654 98.7103C78.3271 97.1198 78.5391 94.7528 80.1277 93.4236L75.3221 87.6654C70.5572 91.6525 69.9211 98.7519 73.9014 103.522L79.654 98.7103ZM80.1277 93.4236L109.538 68.8138L104.733 63.0556L75.3221 87.6654L80.1277 93.4236ZM103.152 61.1607L104.733 63.0556L110.485 58.2434L108.904 56.3485L103.152 61.1607ZM67.9773 90.5938L103.152 61.1607L98.346 55.4026L63.1717 84.8356L67.9773 90.5938ZM109.538 68.8138C112.714 66.1559 113.138 61.4236 110.485 58.2434L104.733 63.0556L104.733 63.0556L109.538 68.8138ZM89.2893 121.964C92.4656 119.306 92.8896 114.574 90.2363 111.394L84.4837 116.206L89.2893 121.964ZM108.904 56.3485C106.25 53.1676 101.523 52.7441 98.346 55.4026L103.152 61.1607L103.152 61.1607L108.904 56.3485ZM76.5613 122.834C79.2152 126.015 83.9425 126.438 87.1195 123.78L82.3139 118.022L82.3139 118.022L76.5613 122.834Z" fill="black" mask="url(#path-8-outside-1_3294_2093)"/>
<mask id="path-10-outside-2_3294_2093" maskUnits="userSpaceOnUse" x="70.7116" y="63.0197" width="80.7592" height="91.9589" fill="black">
<rect fill="white" x="70.7116" y="63.0197" width="80.7592" height="91.9589"/>
<path fill-rule="evenodd" clip-rule="evenodd" d="M135.865 110.469C140.233 106.814 140.816 100.306 137.167 95.9331L120.937 76.4797C119.61 74.8893 117.246 74.6775 115.658 76.0068L113.808 77.5544C112.22 78.8833 112.008 81.2495 113.335 82.8396L124.346 96.0379C127 99.2185 126.576 103.952 123.399 106.61L93.9016 131.293C92.3135 132.622 92.1015 134.988 93.4281 136.578L95.6445 139.234C96.9715 140.825 99.3351 141.037 100.924 139.707L135.865 110.469ZM93.3712 100.744L90.3381 97.0642L109.76 80.3274C110.415 79.7628 111.369 80.5152 110.973 81.2839C109.245 85.6719 106.465 89.5681 102.878 92.6298L93.3712 100.744ZM97.1047 105.266L100.03 108.896L109.587 100.953C113.086 98.0445 115.362 93.9262 115.963 89.4165C115.968 89.3791 115.924 89.3552 115.895 89.3795L97.1047 105.266Z"/>
</mask>
<path fill-rule="evenodd" clip-rule="evenodd" d="M135.865 110.469C140.233 106.814 140.816 100.306 137.167 95.9331L120.937 76.4797C119.61 74.8893 117.246 74.6775 115.658 76.0068L113.808 77.5544C112.22 78.8833 112.008 81.2495 113.335 82.8396L124.346 96.0379C127 99.2185 126.576 103.952 123.399 106.61L93.9016 131.293C92.3135 132.622 92.1015 134.988 93.4281 136.578L95.6445 139.234C96.9715 140.825 99.3351 141.037 100.924 139.707L135.865 110.469ZM93.3712 100.744L90.3381 97.0642L109.76 80.3274C110.415 79.7628 111.369 80.5152 110.973 81.2839C109.245 85.6719 106.465 89.5681 102.878 92.6298L93.3712 100.744ZM97.1047 105.266L100.03 108.896L109.587 100.953C113.086 98.0445 115.362 93.9262 115.963 89.4165C115.968 89.3791 115.924 89.3552 115.895 89.3795L97.1047 105.266Z" fill="#BCF361"/>
<path d="M93.3712 100.744L94.8181 99.5519L93.6049 98.0798L92.1539 99.3183L93.3712 100.744ZM91.9243 101.937L92.3098 102.405L95.2037 100.02L94.8181 99.5519L91.9243 101.937ZM94.3077 102.41L94.5885 102.171L92.1539 99.3183L91.8732 99.558L94.3077 102.41ZM137.167 95.9331L134.288 98.3354L137.167 95.9331ZM135.865 110.469L138.271 113.345L135.865 110.469ZM120.937 76.4797L118.057 78.8821L118.057 78.8821L120.937 76.4797ZM115.658 76.0068L113.251 73.1308L113.251 73.1308L115.658 76.0068ZM113.808 77.5544L111.402 74.6784L111.402 74.6784L113.808 77.5544ZM113.335 82.8396L116.214 80.4372L113.335 82.8396ZM124.346 96.0379L121.467 98.4403L121.467 98.4403L124.346 96.0379ZM123.399 106.61L125.806 109.486L125.806 109.486L123.399 106.61ZM93.9016 131.293L91.4951 128.417L91.4951 128.417L93.9016 131.293ZM93.4281 136.578L96.3076 134.176L93.4281 136.578ZM95.6445 139.234L98.524 136.832L95.6445 139.234ZM100.924 139.707L103.33 142.583L100.924 139.707ZM90.3381 97.0642L87.8901 94.2234L85.1111 96.6182L87.4443 99.4492L90.3381 97.0642ZM93.3712 100.744L90.4774 103.129L92.9039 106.074L95.8058 103.597L93.3712 100.744ZM109.76 80.3274L107.312 77.4866L109.76 80.3274ZM110.973 81.2839L107.64 79.565L107.553 79.7334L107.484 79.9097L110.973 81.2839ZM102.878 92.6298L105.312 95.4821L102.878 92.6298ZM100.03 108.896L97.1098 111.249L99.4987 114.214L102.427 111.78L100.03 108.896ZM97.1047 105.266L94.6835 102.403L91.8866 104.767L94.1847 107.619L97.1047 105.266ZM109.587 100.953L107.19 98.0687L109.587 100.953ZM115.963 89.4165L119.68 89.9117L119.68 89.9117L115.963 89.4165ZM115.895 89.3795L118.316 92.2432L115.895 89.3795ZM134.288 98.3354C136.611 101.12 136.239 105.266 133.458 107.594L138.271 113.345C144.226 108.363 145.021 99.4926 140.047 93.5307L134.288 98.3354ZM118.057 78.8821L134.288 98.3354L140.047 93.5307L123.816 74.0774L118.057 78.8821ZM118.064 78.8827C118.068 78.8796 118.069 78.8794 118.067 78.8804C118.065 78.8813 118.063 78.8821 118.061 78.8827C118.058 78.8838 118.058 78.8832 118.061 78.8834C118.063 78.8837 118.063 78.8843 118.06 78.8826C118.058 78.8817 118.056 78.8805 118.055 78.8793C118.053 78.878 118.054 78.8783 118.057 78.8821L123.816 74.0774C121.161 70.895 116.43 70.4711 113.251 73.1308L118.064 78.8827ZM116.215 80.4303L118.064 78.8827L113.251 73.1308L111.402 74.6784L116.215 80.4303ZM116.214 80.4372C116.211 80.4334 116.211 80.4323 116.211 80.4339C116.212 80.4352 116.213 80.4367 116.213 80.4381C116.214 80.4402 116.213 80.4385 116.213 80.4337C116.214 80.4289 116.215 80.4273 116.214 80.4293C116.213 80.4305 116.212 80.432 116.211 80.4331C116.21 80.4345 116.211 80.4335 116.215 80.4303L111.402 74.6784C108.227 77.3351 107.803 82.0632 110.455 85.2419L116.214 80.4372ZM127.226 93.6356L116.214 80.4372L110.455 85.2419L121.467 98.4403L127.226 93.6356ZM125.806 109.486C130.569 105.5 131.205 98.4047 127.226 93.6356L121.467 98.4403C122.795 100.032 122.583 102.403 120.993 103.734L125.806 109.486ZM96.3082 134.169L125.806 109.486L120.993 103.734L91.4951 128.417L96.3082 134.169ZM96.3076 134.176C96.3044 134.172 96.3041 134.171 96.3049 134.172C96.3056 134.174 96.3063 134.175 96.3067 134.176C96.3073 134.179 96.3064 134.177 96.3069 134.172C96.3073 134.167 96.3085 134.166 96.3074 134.168C96.3068 134.169 96.3059 134.17 96.305 134.172C96.3039 134.173 96.3044 134.172 96.3082 134.169L91.4951 128.417C88.3202 131.074 87.8966 135.802 90.5487 138.98L96.3076 134.176ZM98.524 136.832L96.3076 134.176L90.5487 138.98L92.7651 141.637L98.524 136.832ZM98.5171 136.831C98.5133 136.835 98.5124 136.835 98.5143 136.834C98.5159 136.833 98.518 136.832 98.52 136.831C98.5235 136.83 98.5235 136.831 98.5206 136.831C98.5177 136.831 98.5179 136.83 98.5211 136.832C98.523 136.833 98.5249 136.834 98.5263 136.835C98.528 136.836 98.5271 136.836 98.524 136.832L92.7651 141.637C95.4202 144.819 100.152 145.243 103.33 142.583L98.5171 136.831ZM133.458 107.594L98.5171 136.831L103.33 142.583L138.271 113.345L133.458 107.594ZM87.4443 99.4492L90.4774 103.129L96.2651 98.3594L93.232 94.6792L87.4443 99.4492ZM107.312 77.4866L87.8901 94.2234L92.7861 99.9049L112.208 83.1681L107.312 77.4866ZM114.306 83.0027C116.592 78.5697 111.091 74.2306 107.312 77.4866L112.208 83.1681C109.74 85.295 106.147 82.4607 107.64 79.565L114.306 83.0027ZM105.312 95.4821C109.367 92.0214 112.509 87.6177 114.462 82.658L107.484 79.9097C105.981 83.7261 103.563 87.1147 100.443 89.7776L105.312 95.4821ZM95.8058 103.597L105.312 95.4821L100.443 89.7776L90.9366 97.8922L95.8058 103.597ZM102.95 106.543L100.025 102.913L94.1847 107.619L97.1098 111.249L102.95 106.543ZM107.19 98.0687L97.6327 106.012L102.427 111.78L111.984 103.837L107.19 98.0687ZM112.245 88.9213C111.769 92.4972 109.964 95.7628 107.19 98.0687L111.984 103.837C116.207 100.326 118.955 95.3552 119.68 89.9117L112.245 88.9213ZM118.316 92.2432C115.726 94.4335 111.798 92.2838 112.245 88.9213L119.68 89.9117C120.138 86.4744 116.122 84.2769 113.474 86.5159L118.316 92.2432ZM99.5258 108.13L118.316 92.2432L113.474 86.5159L94.6835 102.403L99.5258 108.13Z" fill="black" mask="url(#path-10-outside-2_3294_2093)"/>
<defs>
<filter id="filter0_ii_3294_2093" x="33" y="34" width="135" height="131" filterUnits="userSpaceOnUse" color-interpolation-filters="sRGB">
<feFlood flood-opacity="0" result="BackgroundImageFix"/>
<feBlend mode="normal" in="SourceGraphic" in2="BackgroundImageFix" result="shape"/>
<feColorMatrix in="SourceAlpha" type="matrix" values="0 0 0 0 0 0 0 0 0 0 0 0 0 0 0 0 0 0 127 0" result="hardAlpha"/>
<feOffset dx="-14" dy="-5"/>
<feComposite in2="hardAlpha" operator="arithmetic" k2="-1" k3="1"/>
<feColorMatrix type="matrix" values="0 0 0 0 1 0 0 0 0 1 0 0 0 0 1 0 0 0 1 0"/>
<feBlend mode="normal" in2="shape" result="effect1_innerShadow_3294_2093"/>
<feColorMatrix in="SourceAlpha" type="matrix" values="0 0 0 0 0 0 0 0 0 0 0 0 0 0 0 0 0 0 127 0" result="hardAlpha"/>
<feOffset dx="12" dy="4"/>
<feComposite in2="hardAlpha" operator="arithmetic" k2="-1" k3="1"/>
<feColorMatrix type="matrix" values="0 0 0 0 1 0 0 0 0 1 0 0 0 0 1 0 0 0 1 0"/>
<feBlend mode="normal" in2="effect1_innerShadow_3294_2093" result="effect2_innerShadow_3294_2093"/>
</filter>
</defs>
</svg>
