<svg width="200" height="200" viewBox="0 0 200 200" fill="none" xmlns="http://www.w3.org/2000/svg">
<g filter="url(#filter0_i_908_2255)">
<path d="M80.1915 36.0081C85.7999 24.8391 101.475 24.1245 108.076 34.7369L174 140.718C180.459 151.101 173.355 164.598 161.14 165.153L39.2189 170.69C27.0059 171.244 18.7083 158.452 24.1943 147.527L80.1915 36.0081Z" fill="#FAE45B"/>
</g>
<path d="M111.473 32.6242C103.221 19.3587 83.6273 20.2519 76.6169 34.2131L20.6197 145.732C13.7621 159.388 24.1342 175.379 39.4003 174.686L161.322 169.149C176.591 168.455 185.47 151.585 177.397 138.606L111.473 32.6242Z" stroke="black" stroke-width="8"/>
<path d="M158 141C168 151 171 160.5 163 161L167 167L174 165.5L180.5 157.5C178.333 148.167 174.3 132.1 175.5 142.5C177 155.5 145.5 128.5 158 141Z" fill="#FFF3C9"/>
<path d="M34 170.725C34.2697 170.395 34.3266 169.922 34.4748 169.533C35.0426 168.044 35.9083 166.682 36.7138 165.314" stroke="black" stroke-width="6" stroke-linecap="round"/>
<path d="M23.8514 161.869C25.9659 159.195 28.2672 156.751 30.6021 154.265" stroke="black" stroke-width="6" stroke-linecap="round"/>
<path d="M144.841 95.062C144.415 95.0812 144.024 95.3551 143.636 95.5041C142.149 96.0749 140.557 96.3392 139 96.6529" stroke="black" stroke-width="6" stroke-linecap="round"/>
<path d="M137.939 82C135.345 84.2128 132.613 86.1631 129.84 88.1474" stroke="black" stroke-width="6" stroke-linecap="round"/>
<path d="M134.757 144.966C134.836 145.384 135.162 145.733 135.364 146.097C136.137 147.49 136.622 149.029 137.15 150.527" stroke="black" stroke-width="6" stroke-linecap="round"/>
<path d="M122.547 142.848C124.191 145.835 125.55 148.904 126.934 152.021" stroke="black" stroke-width="6" stroke-linecap="round"/>
<path d="M85.7613 133.962C85.6228 132.191 90.4507 131.876 95.5 132.281C97.4709 132.439 99.4756 132.707 101.232 133.041C103.931 133.555 106.043 134.224 106.544 134.89C107.091 135.617 106.451 138.091 106.5 140.5C106.541 142.521 107.337 144.349 107.096 146.5C106.749 149.586 106.144 152.311 105.37 153.253C104.748 154.01 102.403 153.896 99.5 154C97.3171 154.078 94.8187 154.501 92.5 154.284C90.6298 154.108 88.8765 153.847 87.5 153.517C85.722 153.09 84.5728 152.547 84.6126 151.925M86.9908 59.8894C88.1322 58.6852 92.8303 58.432 98.0001 58.7019C104.998 59.0672 112.861 60.3912 113.936 61.6125C115.188 63.0356 114.655 67.7396 113.936 71.9483C113.582 74.0194 113.754 75.6188 113.5 77C113.342 77.859 111.5 80.5 112.103 84.4999C112.103 87.3628 112 90.5 111.051 94.9999C110.81 97.4257 109.2 100.457 108.943 103C108.493 107.472 109.387 111.478 108.943 115.5C108.726 117.469 108.514 119.323 108.311 121C107.726 125.829 107.216 129.193 106.88 129.644C105.565 131.406 86.5155 130.002 85.3239 128.265C84.8005 127.502 84.8644 117.254 85.1005 106C85.1456 103.85 85.4452 100.664 85.5 98.5C85.5341 97.1532 85.3214 96.8151 85.3574 95.4999C85.39 94.311 86.4816 93.4999 86.9908 91.4999C87.5001 89.4999 85.9308 88.2149 85.9844 86.4999C85.2518 80.2389 85.9844 75.6287 85.9844 75.6287" fill="white"/>
<path d="M111.544 36.2702C103.249 23.2999 84.0242 24.173 76.939 37.8418L21.1433 145.484C14.0581 159.153 24.4269 175.366 39.807 174.667L160.926 169.167C176.306 168.468 185.162 151.382 176.867 138.412L111.544 36.2702Z" stroke="black" stroke-width="8"/>
<defs>
<filter id="filter0_i_908_2255" x="14.4575" y="19.1874" width="169.99" height="159.52" filterUnits="userSpaceOnUse" color-interpolation-filters="sRGB">
<feFlood flood-opacity="0" result="BackgroundImageFix"/>
<feBlend mode="normal" in="SourceGraphic" in2="BackgroundImageFix" result="shape"/>
<feColorMatrix in="SourceAlpha" type="matrix" values="0 0 0 0 0 0 0 0 0 0 0 0 0 0 0 0 0 0 127 0" result="hardAlpha"/>
<feOffset dx="20" dy="-13"/>
<feComposite in2="hardAlpha" operator="arithmetic" k2="-1" k3="1"/>
<feColorMatrix type="matrix" values="0 0 0 0 1 0 0 0 0 0.952941 0 0 0 0 0.788235 0 0 0 1 0"/>
<feBlend mode="normal" in2="shape" result="effect1_innerShadow_908_2255"/>
</filter>
</defs>
</svg>
