<svg width="200" height="200" viewBox="0 0 200 200" fill="none" xmlns="http://www.w3.org/2000/svg">
<path d="M107.754 176.492C131.38 174.988 149.563 166.324 161.813 152.428C174.03 138.57 180 119.906 180 99C180 56.3482 144.279 22 100.5 22C56.7214 22 21 56.3482 21 99C21 120.042 28.1798 140.369 42.7942 155.007C57.4672 169.705 79.2714 178.304 107.754 176.492Z" fill="#76B4FF" stroke="black" stroke-width="8"/>
<g filter="url(#filter0_ii_643_2543)">
<path d="M163 99.1983C163 132.445 143.96 157.421 106.295 159.809C60.7649 162.695 38 132.445 38 99.1983C38 65.9517 65.9822 39 100.5 39C135.018 39 163 65.9517 163 99.1983Z" fill="#CDE7FF"/>
</g>
<path d="M106.453 162.304C125.83 161.076 140.667 154.006 150.644 142.733C160.601 131.482 165.5 116.291 165.5 99.1983C165.5 64.4834 136.309 36.5 100.5 36.5C64.6907 36.5 35.5 64.4834 35.5 99.1983C35.5 116.377 41.3836 132.925 53.3078 144.823C65.2677 156.757 83.077 163.786 106.453 162.304Z" stroke="black" stroke-width="5"/>
<path d="M46.9998 149C45.2169 151.017 43.2709 152.597 41.2965 154.208" stroke="black" stroke-width="6" stroke-linecap="round"/>
<path d="M111.23 45.9121C111.979 43.1508 113.212 40.5968 114.458 38.0001" stroke="black" stroke-width="6" stroke-linecap="round"/>
<path d="M121.075 49.7483C121.851 47.2404 122.857 45.6983 123.876 44.1194" stroke="black" stroke-width="6" stroke-linecap="round"/>
<path d="M80.805 158.521C81.4904 155.236 81.5902 152.143 81.6991 149" stroke="black" stroke-width="6" stroke-linecap="round"/>
<path d="M130.741 76.1052L145.307 92.0568L150.702 93.2838V104.327H145.307V109.235L135.057 123.346L114.557 125.187L107.544 121.506L102.149 109.235H97.8334L94.5966 118.438L85.965 125.187L66.0045 123.346L57.3729 115.371L55.215 104.327H49.8203V93.2838L52.5177 92.0568L55.215 90.2162L59.5308 82.8539L80.0308 74.2646L88.1229 76.1052L102.149 79.7863L114.557 74.2646L130.741 76.1052Z" fill="#76B4FF" stroke="black"/>
<mask id="path-9-outside-1_643_2543" maskUnits="userSpaceOnUse" x="47.209" y="72.0377" width="106" height="56" fill="black">
<rect fill="white" x="47.209" y="72.0377" width="106" height="56"/>
<path fill-rule="evenodd" clip-rule="evenodd" d="M57.7812 117.748C59.7404 120.678 63.0441 123.999 68.4208 125.638C70.5296 126.28 72.9404 126.658 75.7353 126.675L87.7402 126.674C87.8631 126.66 87.9861 126.646 88.0988 126.613L88.1027 126.611C88.4296 126.509 94.9367 124.465 97.2558 115.002C98.2454 110.929 99.639 110.604 99.8849 110.577C99.9988 110.62 100.057 110.642 100.116 110.642C100.177 110.643 100.239 110.619 100.365 110.57C100.614 110.595 101.987 110.928 102.99 114.996C105.319 124.489 111.871 126.537 112.154 126.606C112.266 126.64 112.395 126.663 112.515 126.665L124.519 126.663C134.413 126.665 139.728 121.833 142.453 117.761C145.34 113.443 145.96 109.131 146.014 108.756C146.015 108.747 146.016 108.74 146.017 108.735C146.019 108.694 146.02 108.656 146.022 108.618C146.023 108.58 146.025 108.542 146.027 108.5L146.028 105.882L150.552 105.879C151.358 105.886 151.997 105.145 152 104.243L151.999 93.6379C152.005 92.7207 151.353 91.9943 150.561 91.9911L146.033 91.994L146.033 90.3049C146.021 89.9776 145.934 89.6449 145.773 89.3746C145.678 89.2093 143.236 85.2139 138.645 81.1935C130.938 74.453 123.306 73.0467 118.249 73.0377C112.81 73.0366 111.028 74.2342 109.314 75.3863L109.278 75.4107L109.275 75.4125C107.636 76.5291 106.083 77.5872 100.113 77.5886C94.1547 77.5942 92.5921 76.5393 90.9532 75.427C89.238 74.2575 87.4567 73.0508 81.9926 73.054C72.832 73.0542 65.847 77.4794 61.5869 81.2029C56.9894 85.2152 54.5525 89.2049 54.4518 89.3785C54.2969 89.6547 54.2043 89.984 54.203 90.307L54.2025 91.9841L49.6608 91.9869C49.2715 91.9875 48.9007 92.1639 48.633 92.4738C48.3654 92.7838 48.2085 93.1956 48.209 93.6383L48.2099 104.244C48.2091 105.01 48.6732 105.645 49.2877 105.832C49.4134 105.87 49.5288 105.888 49.662 105.895L54.1978 105.892L54.1969 108.502C54.2034 108.538 54.2055 108.577 54.2075 108.616C54.2096 108.655 54.2116 108.694 54.2181 108.73C54.2366 108.906 54.827 113.325 57.7812 117.748ZM60.1515 115.883C57.8277 112.469 57.1851 108.97 57.0889 108.362L57.071 90.8405C57.7706 89.777 59.941 86.7274 63.4013 83.7305C69.0503 78.813 75.2947 76.324 81.9547 76.3278C86.6124 76.3215 87.9205 77.2066 89.4253 78.2248L89.4387 78.2339C91.2581 79.4692 93.3242 80.8649 100.089 80.8666C106.855 80.8684 108.92 79.4721 110.737 78.2385L110.743 78.2349C112.253 77.2164 113.556 76.338 118.222 76.3316C124.885 76.3195 131.123 78.816 136.777 83.7223C140.233 86.716 142.404 89.7609 143.111 90.8273L143.115 108.345C143.011 108.977 142.37 112.459 140.04 115.868C136.652 120.845 131.417 123.369 124.487 123.368L112.707 123.37C111.811 123.046 107.456 121.072 105.756 114.119C104.179 107.664 101.134 107.247 100.133 107.299C99.6919 107.267 98.8006 107.302 97.7763 108.028C96.2981 109.092 95.1737 111.133 94.4385 114.126C92.7259 121.077 88.3689 123.052 87.4838 123.378L75.7034 123.38C68.7734 123.379 63.5429 120.866 60.1515 115.883ZM51.113 95.2893L51.11 102.608L54.0734 102.609L54.0765 95.2901L51.113 95.2893ZM146.163 95.2812L146.16 102.6L149.124 102.601L149.127 95.2821L146.163 95.2812Z"/>
</mask>
<path fill-rule="evenodd" clip-rule="evenodd" d="M57.7812 117.748C59.7404 120.678 63.0441 123.999 68.4208 125.638C70.5296 126.28 72.9404 126.658 75.7353 126.675L87.7402 126.674C87.8631 126.66 87.9861 126.646 88.0988 126.613L88.1027 126.611C88.4296 126.509 94.9367 124.465 97.2558 115.002C98.2454 110.929 99.639 110.604 99.8849 110.577C99.9988 110.62 100.057 110.642 100.116 110.642C100.177 110.643 100.239 110.619 100.365 110.57C100.614 110.595 101.987 110.928 102.99 114.996C105.319 124.489 111.871 126.537 112.154 126.606C112.266 126.64 112.395 126.663 112.515 126.665L124.519 126.663C134.413 126.665 139.728 121.833 142.453 117.761C145.34 113.443 145.96 109.131 146.014 108.756C146.015 108.747 146.016 108.74 146.017 108.735C146.019 108.694 146.02 108.656 146.022 108.618C146.023 108.58 146.025 108.542 146.027 108.5L146.028 105.882L150.552 105.879C151.358 105.886 151.997 105.145 152 104.243L151.999 93.6379C152.005 92.7207 151.353 91.9943 150.561 91.9911L146.033 91.994L146.033 90.3049C146.021 89.9776 145.934 89.6449 145.773 89.3746C145.678 89.2093 143.236 85.2139 138.645 81.1935C130.938 74.453 123.306 73.0467 118.249 73.0377C112.81 73.0366 111.028 74.2342 109.314 75.3863L109.278 75.4107L109.275 75.4125C107.636 76.5291 106.083 77.5872 100.113 77.5886C94.1547 77.5942 92.5921 76.5393 90.9532 75.427C89.238 74.2575 87.4567 73.0508 81.9926 73.054C72.832 73.0542 65.847 77.4794 61.5869 81.2029C56.9894 85.2152 54.5525 89.2049 54.4518 89.3785C54.2969 89.6547 54.2043 89.984 54.203 90.307L54.2025 91.9841L49.6608 91.9869C49.2715 91.9875 48.9007 92.1639 48.633 92.4738C48.3654 92.7838 48.2085 93.1956 48.209 93.6383L48.2099 104.244C48.2091 105.01 48.6732 105.645 49.2877 105.832C49.4134 105.87 49.5288 105.888 49.662 105.895L54.1978 105.892L54.1969 108.502C54.2034 108.538 54.2055 108.577 54.2075 108.616C54.2096 108.655 54.2116 108.694 54.2181 108.73C54.2366 108.906 54.827 113.325 57.7812 117.748ZM60.1515 115.883C57.8277 112.469 57.1851 108.97 57.0889 108.362L57.071 90.8405C57.7706 89.777 59.941 86.7274 63.4013 83.7305C69.0503 78.813 75.2947 76.324 81.9547 76.3278C86.6124 76.3215 87.9205 77.2066 89.4253 78.2248L89.4387 78.2339C91.2581 79.4692 93.3242 80.8649 100.089 80.8666C106.855 80.8684 108.92 79.4721 110.737 78.2385L110.743 78.2349C112.253 77.2164 113.556 76.338 118.222 76.3316C124.885 76.3195 131.123 78.816 136.777 83.7223C140.233 86.716 142.404 89.7609 143.111 90.8273L143.115 108.345C143.011 108.977 142.37 112.459 140.04 115.868C136.652 120.845 131.417 123.369 124.487 123.368L112.707 123.37C111.811 123.046 107.456 121.072 105.756 114.119C104.179 107.664 101.134 107.247 100.133 107.299C99.6919 107.267 98.8006 107.302 97.7763 108.028C96.2981 109.092 95.1737 111.133 94.4385 114.126C92.7259 121.077 88.3689 123.052 87.4838 123.378L75.7034 123.38C68.7734 123.379 63.5429 120.866 60.1515 115.883ZM51.113 95.2893L51.11 102.608L54.0734 102.609L54.0765 95.2901L51.113 95.2893ZM146.163 95.2812L146.16 102.6L149.124 102.601L149.127 95.2821L146.163 95.2812Z" fill="black"/>
<path d="M68.4208 125.638L68.7123 124.681H68.7123L68.4208 125.638ZM57.7812 117.748L56.9496 118.304L56.95 118.304L57.7812 117.748ZM75.7353 126.675L75.729 127.675H75.7355L75.7353 126.675ZM87.7402 126.674L87.7403 127.674L87.7954 127.674L87.8502 127.667L87.7402 126.674ZM88.0988 126.613L88.3856 127.571L88.3989 127.567L88.0988 126.613ZM88.1027 126.611L87.803 125.657L87.8026 125.657L88.1027 126.611ZM97.2558 115.002L98.227 115.24L98.2275 115.238L97.2558 115.002ZM99.8849 110.577L100.238 109.641L100.014 109.557L99.775 109.583L99.8849 110.577ZM100.116 110.642L100.121 109.642H100.121L100.116 110.642ZM100.365 110.57L100.464 109.575L100.228 109.552L100.006 109.637L100.365 110.57ZM102.99 114.996L103.961 114.758L103.961 114.757L102.99 114.996ZM112.154 126.606L112.446 125.65L112.419 125.641L112.392 125.635L112.154 126.606ZM112.515 126.665L112.495 127.665L112.505 127.665H112.515L112.515 126.665ZM124.519 126.663L124.52 125.663H124.519L124.519 126.663ZM142.453 117.761L143.284 118.317L143.285 118.317L142.453 117.761ZM146.014 108.756L147.003 108.898L147.003 108.898L146.014 108.756ZM146.017 108.735L147.005 108.885L147.012 108.839L147.015 108.792L146.017 108.735ZM146.027 108.5L147.025 108.557L147.027 108.529L147.027 108.501L146.027 108.5ZM146.028 105.882L146.027 104.882L145.028 104.882L145.028 105.881L146.028 105.882ZM150.552 105.879L150.561 104.879L150.551 104.879L150.552 105.879ZM152 104.243L153 104.246V104.243L152 104.243ZM151.999 93.6379L150.999 93.6308V93.638L151.999 93.6379ZM150.561 91.9911L150.565 90.9911L150.56 90.9911L150.561 91.9911ZM146.033 91.994L145.033 91.9936L145.032 92.9946L146.033 92.9939L146.033 91.994ZM146.033 90.3049L147.033 90.3053L147.033 90.2857L147.032 90.2662L146.033 90.3049ZM145.773 89.3746L144.908 89.8757L144.914 89.886L145.773 89.3746ZM138.645 81.1935L139.304 80.4412L139.304 80.4407L138.645 81.1935ZM118.249 73.0377L118.251 72.0377L118.249 72.0377L118.249 73.0377ZM109.314 75.3863L109.872 76.2162L109.872 76.2162L109.314 75.3863ZM109.278 75.4107L108.72 74.5807L108.715 74.5843L109.278 75.4107ZM109.275 75.4125L109.838 76.239L109.839 76.2388L109.275 75.4125ZM100.113 77.5886L100.113 76.5886L100.112 76.5886L100.113 77.5886ZM90.9532 75.427L90.3898 76.2533L90.3917 76.2545L90.9532 75.427ZM81.9926 73.054L81.9926 74.054L81.9931 74.054L81.9926 73.054ZM61.5869 81.2029L62.2444 81.9564L62.245 81.9559L61.5869 81.2029ZM54.4518 89.3785L53.5869 88.8764L53.5832 88.8828L53.5795 88.8894L54.4518 89.3785ZM54.203 90.307L53.203 90.3031L53.203 90.3067L54.203 90.307ZM54.2025 91.9841L54.2031 92.9841L55.2021 92.9835L55.2025 91.9844L54.2025 91.9841ZM49.6608 91.9869L49.6602 90.9869L49.6594 90.9869L49.6608 91.9869ZM48.209 93.6383L49.209 93.6382L49.209 93.6373L48.209 93.6383ZM48.2099 104.244L49.2099 104.245L49.2099 104.244L48.2099 104.244ZM49.2877 105.832L49.5792 104.875L49.5792 104.875L49.2877 105.832ZM49.662 105.895L49.613 106.894L49.6378 106.895L49.6626 106.895L49.662 105.895ZM54.1978 105.892L55.1978 105.892L55.1981 104.891L54.1972 104.892L54.1978 105.892ZM54.1969 108.502L53.1969 108.502L53.1969 108.591L53.2127 108.679L54.1969 108.502ZM54.2075 108.616L55.2061 108.564V108.564L54.2075 108.616ZM54.2181 108.73L55.2127 108.626L55.2088 108.589L55.2023 108.553L54.2181 108.73ZM57.0889 108.362L56.0889 108.363L56.0889 108.441L56.1012 108.519L57.0889 108.362ZM60.1515 115.883L59.3248 116.446L59.3249 116.446L60.1515 115.883ZM57.071 90.8405L56.2355 90.2909L56.0707 90.5415L56.071 90.8415L57.071 90.8405ZM63.4013 83.7305L64.056 84.4864L64.0578 84.4847L63.4013 83.7305ZM81.9547 76.3278L81.9541 77.3278L81.956 77.3278L81.9547 76.3278ZM89.4253 78.2248L88.8648 79.053L88.8649 79.053L89.4253 78.2248ZM89.4387 78.2339L90.0004 77.4066L89.9991 77.4057L89.4387 78.2339ZM110.737 78.2385L110.178 77.4095L110.176 77.4111L110.737 78.2385ZM110.743 78.2349L110.184 77.4058L110.184 77.4058L110.743 78.2349ZM118.222 76.3316L118.223 77.3316L118.223 77.3316L118.222 76.3316ZM136.777 83.7223L136.122 84.4776L136.122 84.4782L136.777 83.7223ZM143.111 90.8273L144.111 90.8271L144.111 90.526L143.945 90.275L143.111 90.8273ZM143.115 108.345L144.102 108.507L144.115 108.427L144.115 108.345L143.115 108.345ZM140.04 115.868L139.215 115.304L139.214 115.305L140.04 115.868ZM124.487 123.368L124.488 122.368H124.487L124.487 123.368ZM112.707 123.37L112.367 124.31L112.532 124.37L112.707 124.37L112.707 123.37ZM105.756 114.119L104.785 114.357L104.785 114.357L105.756 114.119ZM100.133 107.299L100.06 108.297L100.123 108.301L100.186 108.298L100.133 107.299ZM97.7763 108.028L97.1979 107.212L97.1919 107.216L97.7763 108.028ZM94.4385 114.126L95.4094 114.365L95.4096 114.365L94.4385 114.126ZM87.4838 123.378L87.484 124.378L87.6622 124.378L87.8295 124.316L87.4838 123.378ZM75.7034 123.38L75.7033 124.38H75.7036L75.7034 123.38ZM51.11 102.608L50.11 102.608L50.1095 103.608L51.1097 103.608L51.11 102.608ZM51.113 95.2893L51.1133 94.2893L50.1134 94.289L50.113 95.2889L51.113 95.2893ZM54.0734 102.609L54.0732 103.609L55.073 103.609L55.0734 102.609L54.0734 102.609ZM54.0765 95.2901L55.0765 95.2906L55.0769 94.2904L54.0768 94.2901L54.0765 95.2901ZM146.16 102.6L145.16 102.6L145.16 103.6L146.16 103.6L146.16 102.6ZM146.163 95.2812L146.164 94.2812L145.164 94.2809L145.163 95.2808L146.163 95.2812ZM149.124 102.601L149.123 103.601L150.123 103.601L150.124 102.601L149.124 102.601ZM149.127 95.2821L150.127 95.2825L150.127 94.2824L149.127 94.2821L149.127 95.2821ZM68.7123 124.681C63.6059 123.125 60.4754 119.978 58.6124 117.193L56.95 118.304C59.0054 121.377 62.4823 124.874 68.1293 126.594L68.7123 124.681ZM75.7416 125.675C73.0343 125.658 70.7203 125.293 68.7123 124.681L68.1293 126.594C70.3389 127.268 72.8466 127.657 75.729 127.675L75.7416 125.675ZM87.74 125.674L75.7352 125.675L75.7355 127.675L87.7403 127.674L87.74 125.674ZM87.8121 125.655C87.8142 125.654 87.8035 125.657 87.7704 125.662C87.7353 125.668 87.6955 125.672 87.6302 125.68L87.8502 127.667C87.9544 127.656 88.1705 127.635 88.3855 127.571L87.8121 125.655ZM87.8026 125.657L87.7987 125.659L88.3989 127.567L88.4028 127.565L87.8026 125.657ZM96.2845 114.764C94.0819 123.752 87.9556 125.609 87.803 125.657L88.4023 127.565C88.9037 127.408 95.7915 125.178 98.227 115.24L96.2845 114.764ZM99.775 109.583C98.8993 109.68 97.3109 110.539 96.284 114.766L98.2275 115.238C99.1799 111.318 100.379 111.528 99.9949 111.571L99.775 109.583ZM100.121 109.642C100.222 109.643 100.295 109.664 100.31 109.668C100.317 109.67 100.316 109.67 100.301 109.665C100.287 109.66 100.268 109.653 100.238 109.641L99.5317 111.513C99.5743 111.529 99.8296 111.641 100.11 111.642L100.121 109.642ZM100.006 109.637C99.973 109.65 99.9521 109.658 99.9352 109.664C99.9183 109.67 99.9163 109.671 99.9221 109.669C99.9368 109.664 100.013 109.642 100.121 109.642L100.11 111.642C100.406 111.644 100.676 111.522 100.725 111.504L100.006 109.637ZM103.961 114.757C102.925 110.555 101.361 109.664 100.464 109.575L100.267 111.565C99.8669 111.526 101.05 111.301 102.019 115.235L103.961 114.757ZM112.392 125.635C112.393 125.635 110.831 125.176 108.995 123.58C107.18 122.002 105.074 119.295 103.961 114.758L102.019 115.234C104.461 125.189 111.383 127.447 111.917 127.578L112.392 125.635ZM112.534 125.665C112.516 125.665 112.478 125.659 112.446 125.65L111.863 127.563C112.054 127.621 112.275 127.661 112.495 127.665L112.534 125.665ZM124.519 125.663L112.514 125.665L112.515 127.665L124.52 127.663L124.519 125.663ZM141.622 117.205C139.044 121.056 134.017 125.665 124.52 125.663L124.519 127.663C134.809 127.665 140.411 122.61 143.284 118.317L141.622 117.205ZM145.024 108.614C144.978 108.936 144.385 113.072 141.622 117.205L143.285 118.317C146.295 113.814 146.942 109.326 147.003 108.898L145.024 108.614ZM145.028 108.586C145.026 108.595 145.025 108.607 145.024 108.614L147.003 108.898C147.004 108.893 147.005 108.89 147.005 108.887C147.005 108.884 147.006 108.884 147.005 108.885L145.028 108.586ZM145.023 108.58C145.021 108.619 145.02 108.648 145.018 108.679L147.015 108.792C147.018 108.74 147.02 108.693 147.021 108.656L145.023 108.58ZM145.029 108.444C145.026 108.496 145.024 108.543 145.023 108.58L147.021 108.656C147.023 108.617 147.024 108.588 147.025 108.557L145.029 108.444ZM145.028 105.881L145.027 108.5L147.027 108.501L147.028 105.882L145.028 105.881ZM146.029 106.882L150.552 106.879L150.551 104.879L146.027 104.882L146.029 106.882ZM150.543 106.879C152.033 106.893 152.996 105.563 153 104.246L151 104.24C150.999 104.458 150.921 104.633 150.826 104.742C150.733 104.848 150.639 104.88 150.561 104.879L150.543 106.879ZM153 104.243L152.999 93.6379L150.999 93.638L151 104.243L153 104.243ZM152.999 93.6451C153.009 92.2865 152.017 90.997 150.565 90.9911L150.557 92.9911C150.69 92.9916 151.002 93.1549 150.999 93.6308L152.999 93.6451ZM150.56 90.9911L146.032 90.994L146.033 92.9939L150.561 92.9911L150.56 90.9911ZM145.033 90.3046L145.033 91.9936L147.033 91.9943L147.033 90.3053L145.033 90.3046ZM144.914 89.886C144.976 89.9898 145.027 90.154 145.034 90.3437L147.032 90.2662C147.014 89.8012 146.893 89.3 146.633 88.8633L144.914 89.886ZM137.986 81.9458C140.226 83.9069 141.942 85.8631 143.109 87.3476C143.692 88.0893 144.136 88.7115 144.439 89.1553C144.59 89.3772 144.706 89.5541 144.785 89.6787C144.825 89.7411 144.856 89.79 144.877 89.8247C144.9 89.862 144.909 89.8777 144.908 89.8757L146.639 88.8735C146.504 88.6413 143.998 84.5519 139.304 80.4412L137.986 81.9458ZM118.248 74.0377C123.11 74.0463 130.494 75.393 137.987 81.9462L139.304 80.4407C131.382 73.5131 123.503 72.047 118.251 72.0377L118.248 74.0377ZM109.872 76.2162C110.723 75.6444 111.499 75.1258 112.699 74.7289C113.908 74.3289 115.6 74.0371 118.249 74.0377L118.249 72.0377C115.459 72.0371 113.541 72.3436 112.07 72.8302C110.591 73.3198 109.62 73.976 108.756 74.5564L109.872 76.2162ZM109.836 76.2406L109.872 76.2162L108.756 74.5564L108.72 74.5808L109.836 76.2406ZM109.839 76.2388L109.841 76.237L108.715 74.5843L108.712 74.5861L109.839 76.2388ZM100.114 78.5886C103.149 78.5879 105.138 78.3196 106.607 77.8761C108.102 77.425 109.006 76.8063 109.838 76.239L108.712 74.586C107.906 75.1353 107.214 75.6039 106.029 75.9614C104.82 76.3264 103.047 76.5879 100.113 76.5886L100.114 78.5886ZM90.3917 76.2545C91.2252 76.8201 92.1311 77.4364 93.626 77.8849C95.0961 78.3258 97.0842 78.5914 100.114 78.5886L100.112 76.5886C97.1839 76.5913 95.4113 76.3323 94.2007 75.9692C93.015 75.6135 92.3201 75.1462 91.5147 74.5996L90.3917 76.2545ZM81.9931 74.054C84.6543 74.0524 86.3518 74.346 87.5626 74.7495C88.7635 75.1497 89.5397 75.6736 90.3898 76.2533L91.5166 74.6008C90.6515 74.011 89.6794 73.3468 88.1949 72.852C86.7201 72.3606 84.7949 72.0524 81.992 72.054L81.9931 74.054ZM62.245 81.9559C66.4064 78.3186 73.1658 74.0542 81.9926 74.054L81.9925 72.054C72.4982 72.0542 65.2876 76.6402 60.9288 80.45L62.245 81.9559ZM55.3166 89.8805C55.3162 89.8812 55.3261 89.8644 55.3491 89.827C55.3708 89.7919 55.4016 89.7426 55.4416 89.68C55.5215 89.5548 55.6374 89.3775 55.7888 89.1554C56.0917 88.7113 56.536 88.0894 57.1189 87.3486C58.2857 85.8657 60.0021 83.9132 62.2444 81.9564L60.9294 80.4495C56.2277 84.5526 53.7259 88.637 53.5869 88.8764L55.3166 89.8805ZM55.203 90.3109C55.2036 90.1679 55.2471 90.0046 55.324 89.8675L53.5795 88.8894C53.3466 89.3048 53.205 89.8 53.2031 90.3031L55.203 90.3109ZM55.2025 91.9844L55.203 90.3073L53.203 90.3067L53.2025 91.9837L55.2025 91.9844ZM54.2019 90.9841L49.6602 90.9869L49.6614 92.9869L54.2031 92.9841L54.2019 90.9841ZM49.6594 90.9869C48.9614 90.9879 48.3209 91.3051 47.8761 91.8203L49.39 93.1273C49.4804 93.0226 49.5816 92.9871 49.6622 92.9869L49.6594 90.9869ZM47.8761 91.8203C47.4492 92.3148 47.2083 92.9599 47.209 93.6394L49.209 93.6373C49.2088 93.4313 49.2817 93.2527 49.39 93.1273L47.8761 91.8203ZM47.209 93.6384L47.2099 104.244L49.2099 104.244L49.209 93.6382L47.209 93.6384ZM47.2099 104.243C47.2087 105.397 47.9128 106.458 48.9962 106.788L49.5792 104.875C49.4336 104.831 49.2095 104.622 49.2099 104.245L47.2099 104.243ZM48.9962 106.788C49.2108 106.854 49.4089 106.884 49.613 106.894L49.711 104.896C49.6487 104.893 49.6159 104.886 49.5792 104.875L48.9962 106.788ZM49.6626 106.895L54.1984 106.892L54.1972 104.892L49.6614 104.895L49.6626 106.895ZM55.1969 108.503L55.1978 105.892L53.1978 105.892L53.1969 108.502L55.1969 108.503ZM55.2061 108.564C55.2048 108.538 55.2007 108.434 55.1811 108.325L53.2127 108.679C53.2105 108.667 53.2091 108.657 53.2084 108.651C53.2076 108.645 53.2073 108.641 53.2073 108.641C53.2073 108.64 53.2074 108.642 53.2077 108.647C53.208 108.653 53.2084 108.659 53.2089 108.669L55.2061 108.564ZM55.2023 108.553C55.2046 108.566 55.2059 108.575 55.2067 108.582C55.2074 108.588 55.2077 108.591 55.2078 108.592C55.2078 108.592 55.2076 108.59 55.2073 108.585C55.207 108.58 55.2067 108.574 55.2061 108.564L53.2089 108.669C53.2103 108.694 53.2143 108.798 53.2339 108.907L55.2023 108.553ZM58.6128 117.193C57.2024 115.081 56.3527 112.964 55.8542 111.351C55.6053 110.546 55.4452 109.871 55.3468 109.391C55.2977 109.151 55.264 108.96 55.2425 108.827C55.2201 108.688 55.2121 108.621 55.2127 108.626L53.2236 108.834C53.2516 109.102 53.873 113.697 56.9496 118.304L58.6128 117.193ZM56.1012 108.519C56.2078 109.193 56.8822 112.857 59.3248 116.446L60.9783 115.321C58.7732 112.081 58.1624 108.748 58.0766 108.206L56.1012 108.519ZM56.071 90.8415L56.0889 108.363L58.0889 108.361L58.071 90.8395L56.071 90.8415ZM62.7466 82.9746C59.1957 86.05 56.9675 89.1783 56.2355 90.2909L57.9064 91.3901C58.5737 90.3757 60.6864 87.4048 64.056 84.4864L62.7466 82.9746ZM81.9552 75.3278C75.0237 75.3239 68.5519 77.9211 62.7447 82.9762L64.0578 84.4847C69.5487 79.705 75.5657 77.3242 81.9541 77.3278L81.9552 75.3278ZM89.9857 77.3966C89.2283 76.8841 88.4215 76.334 87.1744 75.9388C85.943 75.5486 84.339 75.3246 81.9533 75.3278L81.956 77.3278C84.228 77.3247 85.6069 77.5401 86.5702 77.8454C87.5178 78.1457 88.1174 78.5473 88.8648 79.053L89.9857 77.3966ZM89.9991 77.4057L89.9857 77.3966L88.8649 79.053L88.8783 79.0621L89.9991 77.4057ZM100.09 79.8666C96.7713 79.8658 94.6727 79.5224 93.2114 79.0595C91.7673 78.6021 90.8955 78.0143 90.0004 77.4066L88.877 79.0612C89.8013 79.6888 90.8723 80.4165 92.6074 80.9662C94.3253 81.5103 96.6423 81.8657 100.089 81.8666L100.09 79.8666ZM110.176 77.4111C109.281 78.0181 108.41 78.6055 106.967 79.0625C105.506 79.5249 103.408 79.8675 100.09 79.8666L100.089 81.8666C103.536 81.8676 105.853 81.5129 107.571 80.9692C109.305 80.4201 110.376 79.6925 111.299 79.0659L110.176 77.4111ZM110.184 77.4058L110.178 77.4095L111.296 79.0676L111.302 79.0639L110.184 77.4058ZM118.22 75.3316C115.831 75.3349 114.228 75.5605 112.997 75.9504C111.75 76.3453 110.944 76.8932 110.184 77.4058L111.302 79.064C112.052 78.5581 112.652 78.1575 113.601 77.857C114.565 77.5515 115.946 77.3347 118.223 77.3316L118.22 75.3316ZM137.432 82.967C131.621 77.9246 125.157 75.319 118.22 75.3316L118.223 77.3316C124.614 77.32 130.624 79.7074 136.122 84.4776L137.432 82.967ZM143.945 90.275C143.207 89.1616 140.978 86.0385 137.432 82.9665L136.122 84.4782C139.488 87.3934 141.602 90.3601 142.277 91.3797L143.945 90.275ZM144.115 108.345L144.111 90.8271L142.111 90.8276L142.115 108.345L144.115 108.345ZM140.866 116.432C143.316 112.847 143.988 109.199 144.102 108.507L142.128 108.182C142.034 108.755 141.425 112.07 139.215 115.304L140.866 116.432ZM124.487 124.368C131.69 124.369 137.262 121.726 140.867 116.431L139.214 115.305C136.042 119.964 131.145 122.369 124.488 122.368L124.487 124.368ZM112.707 124.37L124.488 124.368L124.487 122.368L112.707 122.37L112.707 124.37ZM104.785 114.357C106.583 121.714 111.241 123.903 112.367 124.31L113.047 122.43C112.38 122.188 108.328 120.43 106.727 113.882L104.785 114.357ZM100.186 108.298C100.487 108.282 101.235 108.325 102.087 109.036C102.955 109.761 104.028 111.259 104.785 114.357L106.727 113.882C105.907 110.524 104.669 108.586 103.369 107.501C102.055 106.404 100.78 106.264 100.081 106.301L100.186 108.298ZM98.3547 108.844C99.1449 108.283 99.7893 108.277 100.06 108.297L100.206 106.302C99.5945 106.257 98.4563 106.32 97.1979 107.212L98.3547 108.844ZM95.4096 114.365C96.1232 111.459 97.1683 109.698 98.3607 108.839L97.1919 107.216C95.4278 108.487 94.2241 110.807 93.4673 113.888L95.4096 114.365ZM87.8295 124.316C88.9373 123.908 93.5972 121.721 95.4094 114.365L93.4675 113.887C91.8546 120.433 87.8006 122.196 87.1381 122.44L87.8295 124.316ZM75.7036 124.38L87.484 124.378L87.4836 122.378L75.7032 122.38L75.7036 124.38ZM59.3249 116.446C62.9333 121.748 68.5014 124.379 75.7033 124.38L75.7035 122.38C69.0454 122.379 64.1524 119.984 60.9782 115.321L59.3249 116.446ZM52.11 102.609L52.113 95.2897L50.113 95.2889L50.11 102.608L52.11 102.609ZM54.0737 101.609L51.1102 101.608L51.1097 103.608L54.0732 103.609L54.0737 101.609ZM53.0765 95.2897L53.0734 102.609L55.0734 102.609L55.0765 95.2906L53.0765 95.2897ZM51.1127 96.2893L54.0762 96.2901L54.0768 94.2901L51.1133 94.2893L51.1127 96.2893ZM147.16 102.6L147.163 95.2817L145.163 95.2808L145.16 102.6L147.16 102.6ZM149.124 101.601L146.161 101.6L146.16 103.6L149.123 103.601L149.124 101.601ZM148.127 95.2817L148.124 102.601L150.124 102.601L150.127 95.2825L148.127 95.2817ZM146.163 96.2812L149.126 96.2821L149.127 94.2821L146.164 94.2812L146.163 96.2812Z" fill="black" mask="url(#path-9-outside-1_643_2543)"/>
<defs>
<filter id="filter0_ii_643_2543" x="33" y="34" width="135" height="131" filterUnits="userSpaceOnUse" color-interpolation-filters="sRGB">
<feFlood flood-opacity="0" result="BackgroundImageFix"/>
<feBlend mode="normal" in="SourceGraphic" in2="BackgroundImageFix" result="shape"/>
<feColorMatrix in="SourceAlpha" type="matrix" values="0 0 0 0 0 0 0 0 0 0 0 0 0 0 0 0 0 0 127 0" result="hardAlpha"/>
<feOffset dx="-14" dy="-5"/>
<feComposite in2="hardAlpha" operator="arithmetic" k2="-1" k3="1"/>
<feColorMatrix type="matrix" values="0 0 0 0 0.960784 0 0 0 0 0.980392 0 0 0 0 1 0 0 0 1 0"/>
<feBlend mode="normal" in2="shape" result="effect1_innerShadow_643_2543"/>
<feColorMatrix in="SourceAlpha" type="matrix" values="0 0 0 0 0 0 0 0 0 0 0 0 0 0 0 0 0 0 127 0" result="hardAlpha"/>
<feOffset dx="12" dy="4"/>
<feComposite in2="hardAlpha" operator="arithmetic" k2="-1" k3="1"/>
<feColorMatrix type="matrix" values="0 0 0 0 0.9625 0 0 0 0 0.982 0 0 0 0 1 0 0 0 1 0"/>
<feBlend mode="normal" in2="effect1_innerShadow_643_2543" result="effect2_innerShadow_643_2543"/>
</filter>
</defs>
</svg>
