<svg width="200" height="200" viewBox="0 0 200 200" fill="none" xmlns="http://www.w3.org/2000/svg">
<g filter="url(#filter0_ii_919_2789)">
<path d="M176 99C176 139.317 153 169.605 107.5 172.5C52.5 176 25 139.317 25 99C25 58.6832 58.8025 26 100.5 26C142.197 26 176 58.6832 176 99Z" fill="#BCF361"/>
</g>
<path d="M107.754 176.492C131.38 174.988 149.563 166.324 161.813 152.428C174.03 138.57 180 119.906 180 99C180 56.3482 144.279 22 100.5 22C56.7214 22 21 56.3482 21 99C21 120.042 28.1798 140.369 42.7942 155.007C57.4672 169.705 79.2714 178.304 107.754 176.492Z" stroke="black" stroke-width="8"/>
<path d="M36.803 145.027C40.5212 143.239 44.2605 142.068 48.0583 140.871" stroke="black" stroke-width="6" stroke-linecap="round"/>
<path d="M154.655 44.6937C150.625 47.1396 147.078 49.9681 143.469 52.8361" stroke="black" stroke-width="6" stroke-linecap="round"/>
<path d="M143.164 36.12C142.155 38.0437 140.934 39.6617 139.698 41.3091" stroke="black" stroke-width="6" stroke-linecap="round"/>
<path d="M33.9999 134.906C35.8404 133.21 37.6818 132.13 39.5521 131.025" stroke="black" stroke-width="6" stroke-linecap="round"/>
<path d="M62 85H80" stroke="black" stroke-width="8" stroke-linecap="round"/>
<path d="M121 85H139" stroke="black" stroke-width="8" stroke-linecap="round"/>
<path d="M80 121H121" stroke="black" stroke-width="8" stroke-linecap="round"/>
<defs>
<filter id="filter0_ii_919_2789" x="17" y="18" width="167" height="162.731" filterUnits="userSpaceOnUse" color-interpolation-filters="sRGB">
<feFlood flood-opacity="0" result="BackgroundImageFix"/>
<feBlend mode="normal" in="SourceGraphic" in2="BackgroundImageFix" result="shape"/>
<feColorMatrix in="SourceAlpha" type="matrix" values="0 0 0 0 0 0 0 0 0 0 0 0 0 0 0 0 0 0 127 0" result="hardAlpha"/>
<feOffset dx="-16" dy="-12"/>
<feComposite in2="hardAlpha" operator="arithmetic" k2="-1" k3="1"/>
<feColorMatrix type="matrix" values="0 0 0 0 0.952941 0 0 0 0 1 0 0 0 0 0.87451 0 0 0 1 0"/>
<feBlend mode="normal" in2="shape" result="effect1_innerShadow_919_2789"/>
<feColorMatrix in="SourceAlpha" type="matrix" values="0 0 0 0 0 0 0 0 0 0 0 0 0 0 0 0 0 0 127 0" result="hardAlpha"/>
<feOffset dx="15" dy="14"/>
<feComposite in2="hardAlpha" operator="arithmetic" k2="-1" k3="1"/>
<feColorMatrix type="matrix" values="0 0 0 0 0.952941 0 0 0 0 1 0 0 0 0 0.87451 0 0 0 1 0"/>
<feBlend mode="normal" in2="effect1_innerShadow_919_2789" result="effect2_innerShadow_919_2789"/>
</filter>
</defs>
</svg>
