<svg width="200" height="200" viewBox="0 0 200 200" fill="none" xmlns="http://www.w3.org/2000/svg">
<g filter="url(#filter0_ii_919_2680)">
<path d="M176 99C176 139.317 153 169.605 107.5 172.5C52.5 176 25 139.317 25 99C25 58.6832 58.8025 26 100.5 26C142.197 26 176 58.6832 176 99Z" fill="#76B4FF"/>
</g>
<path d="M107.754 176.492C131.38 174.988 149.563 166.324 161.813 152.428C174.03 138.57 180 119.906 180 99C180 56.3482 144.279 22 100.5 22C56.7214 22 21 56.3482 21 99C21 120.042 28.1798 140.369 42.7942 155.007C57.4672 169.705 79.2714 178.304 107.754 176.492Z" stroke="black" stroke-width="8"/>
<g filter="url(#filter1_i_919_2680)">
<path d="M138.243 106.364C138.209 106.424 138.167 106.48 138.121 106.532C137.459 107.28 136.689 108.407 136.035 109.128C134.612 110.694 132.654 113.595 130.603 115.609C128.801 117.379 126.627 118.247 124.856 119.92C121.344 123.238 119.063 126.02 118.646 126.538C118.599 126.596 118.547 126.648 118.49 126.695L115.712 128.941C115.081 129.452 115.289 130.462 116.071 130.681L120.279 131.865L124.431 133.033C125.223 133.256 125.422 134.287 124.77 134.789L118.577 139.555L112.353 144.344L101.39 152.78L97.7381 155.655C96.8579 156.348 95.6765 155.291 96.2684 154.34C98.6196 150.562 101.539 145.864 101.869 145.301C102.274 144.61 104.125 141.399 105.122 139.669C105.448 139.104 105.154 138.385 104.526 138.208L100.994 137.214L97.3642 136.193C96.768 136.025 96.4661 135.362 96.7315 134.802L99.441 129.089C99.4631 129.042 99.4888 128.997 99.5179 128.955L102.664 124.333C103.088 123.71 102.696 122.86 101.944 122.796C99.8066 122.612 97.5693 122.511 94.7083 122.427C94.5714 122.423 94.4368 122.446 94.3068 122.489C93.3519 122.804 89.0449 123.953 85.5861 120.398C84.0104 118.779 82.1689 116.282 80.1797 113.098C80.1755 113.091 80.1746 113.089 80.1703 113.083C80.0329 112.873 75.3187 105.612 79.5256 105.41C81.8538 105.534 84.3273 106.044 86.7862 106.598C88.9905 107.095 91.1831 107.627 93.2485 107.947C95.3108 108.241 97.0685 108.398 98.5152 108.474C99.6057 108.531 99.7287 107.414 98.6742 107.13C95.8754 106.376 92.2286 105.373 88.7781 104.358C84.5428 103.113 80.6032 101.852 78.8903 101.015C76.6643 99.9282 75.3486 98.5087 73.8995 95.0167C73.2737 93.5086 71.5034 90.4451 71.1456 88.791C70.66 86.5462 70.9379 84.251 71.131 82.1338C71.1408 82.0268 71.1329 81.9212 71.116 81.8151C70.994 81.048 70.7621 77.8619 76.0923 81.0217C77.4403 81.8535 80.2439 83.8518 83.1916 85.4387C85.0281 86.4274 87.8249 87.7009 89.8962 88.791C90.7065 89.2175 91.513 89.6383 92.3088 90.0504C93.4143 90.6231 94.2807 89.1164 93.2485 88.4204V88.4204C91.1198 86.985 88.9139 85.4808 86.7862 84.002C80.2782 79.4789 74.5011 75.194 73.8995 73.8466C73.1556 71.3679 71.9557 68.8349 71.6979 66.2826C71.4729 64.0547 72.5099 60.8542 72.6557 58.6202C72.8377 55.8331 72.9308 54.0172 73.6908 51.3023C73.935 50.4341 74.9243 50.244 75.7916 50.4879L76.0191 50.5519C76.1549 50.5902 76.2792 50.6551 76.3876 50.7455C77.0588 51.3052 79.7613 53.5558 83.5963 56.7046C85.3439 58.1394 87.3265 59.7608 89.4593 61.4936C91.9946 63.5535 94.742 65.771 97.5586 68.0202C99.9952 69.9658 103.315 71.0758 105.763 72.9873C108.653 75.2438 110.654 78.2791 113.278 80.2402C115.414 81.8361 117.055 83.9894 119.109 85.4387C121.478 87.11 124.237 88.055 126.35 89.5661C129.054 91.4997 131.484 93.3174 133.476 95.0584C138.072 99.0748 140.335 102.683 138.243 106.364Z" fill="#CDE7FF"/>
</g>
<path d="M73.8179 100.861C74.6976 101.896 75.6612 102.65 76.7189 103.258C76.6343 103.317 76.5508 103.379 76.4685 103.444C75.5395 104.186 75.0793 105.164 74.8945 106.056C74.5686 107.63 75.0295 109.238 75.3951 110.256C76.1635 112.398 77.4759 114.442 77.6447 114.702C79.6759 117.953 81.6456 120.651 83.436 122.491C87.844 127.02 93.2443 125.926 94.934 125.435C96.1272 125.471 97.2018 125.511 98.2008 125.558L97.038 127.266C96.9217 127.437 96.8189 127.617 96.7303 127.803L94.0208 133.517C92.9593 135.755 94.167 138.41 96.5518 139.081L100.181 140.102L101.238 140.399C100.394 141.864 99.5372 143.347 99.2807 143.784C98.9772 144.302 96.0942 148.942 93.7213 152.755C91.3472 156.57 96.0846 160.775 99.5939 158.012L103.233 155.147L114.183 146.721L120.406 141.932L126.6 137.166C129.208 135.159 128.412 131.037 125.244 130.146L121.092 128.978L120.594 128.838C120.735 128.706 120.865 128.566 120.983 128.419C121.344 127.97 123.533 125.297 126.916 122.1C127.571 121.481 128.319 120.991 129.359 120.312C130.334 119.675 131.565 118.869 132.705 117.75C133.879 116.597 134.982 115.236 135.911 114.056C136.138 113.768 136.351 113.496 136.553 113.238C137.233 112.367 137.779 111.669 138.255 111.145C138.677 110.68 139.106 110.121 139.443 109.682L139.455 109.666C139.835 109.171 140.121 108.798 140.367 108.521C140.526 108.342 140.697 108.118 140.851 107.847C142.438 105.054 142.322 102.192 141.081 99.5581C139.932 97.1207 137.835 94.8832 135.45 92.7996C133.344 90.9582 130.815 89.0711 128.095 87.1259C126.867 86.2479 125.493 85.5513 124.322 84.958C124.275 84.9342 124.229 84.9105 124.182 84.887C122.908 84.2407 121.818 83.6784 120.839 82.9875C120.043 82.4259 119.286 81.6984 118.328 80.7559C118.286 80.7147 118.244 80.673 118.201 80.6309C117.326 79.7686 116.277 78.7357 115.074 77.8371C114.021 77.0501 113.05 76.0141 111.823 74.6874L111.753 74.6125C110.604 73.3696 109.244 71.8988 107.61 70.6228C106.19 69.5142 104.566 68.6583 103.211 67.9445C103.159 67.9171 103.107 67.8899 103.056 67.8629C101.572 67.0802 100.39 66.4419 99.4306 65.6759C96.6217 63.433 93.8811 61.2209 91.351 59.1653C89.2228 57.4361 87.2442 55.818 85.5001 54.386C81.6723 51.2432 78.9759 48.9977 78.3091 48.4416C77.8711 48.0763 77.3675 47.8148 76.8315 47.664L76.604 47.6C75.7414 47.3574 74.6555 47.2754 73.5801 47.625C72.403 48.0076 71.2397 48.937 70.8029 50.4899L70.8018 50.4936C69.9871 53.404 69.8543 55.4557 69.6872 58.0377C69.679 58.1654 69.6706 58.2943 69.6621 58.4248C69.6175 59.1084 69.4668 59.9013 69.2713 60.9306C69.2133 61.2358 69.1514 61.5618 69.0871 61.9119C68.8437 63.2375 68.5521 64.9901 68.7131 66.5841C68.8764 68.2007 69.3277 69.727 69.7734 71.05C69.9679 71.6273 70.148 72.1322 70.317 72.606C70.5757 73.3311 70.8083 73.9831 71.0261 74.7089L71.0816 74.8936L71.1602 75.0697C71.4321 75.6787 71.847 76.176 72.1239 76.4854C72.1748 76.5422 72.2272 76.5993 72.2809 76.6566C71.3727 76.6944 70.4401 76.9693 69.6316 77.6474C68.5078 78.59 68.2041 79.8394 68.1154 80.5533C68.0391 81.1679 68.0782 81.718 68.1234 82.0769C68.1131 82.186 68.1025 82.2976 68.0916 82.4115C67.9089 84.321 67.6637 86.8841 68.2134 89.4253C68.4821 90.667 69.1892 92.1721 69.7249 93.2722C69.949 93.7322 70.1555 94.146 70.3407 94.5172C70.6842 95.2053 70.9546 95.7472 71.1286 96.1666C71.9122 98.0548 72.7459 99.6001 73.8179 100.861Z" stroke="black" stroke-width="6"/>
<path d="M52.0001 148C49.2651 150.758 46.319 152.953 43.3294 155.19" stroke="black" stroke-width="6" stroke-linecap="round"/>
<path d="M104.286 37.7055C104.808 33.6132 105.859 29.8383 106.92 26" stroke="black" stroke-width="6" stroke-linecap="round"/>
<path d="M159.076 152.061C155.784 148.687 152.229 145.869 148.621 143" stroke="black" stroke-width="6" stroke-linecap="round"/>
<path d="M168.629 142.366C165.863 140.51 163.059 139.269 160.211 138" stroke="black" stroke-width="6" stroke-linecap="round"/>
<path d="M94.2684 34.5534C93.8458 32.0863 93.9409 29.9537 94.0308 27.7832" stroke="black" stroke-width="6" stroke-linecap="round"/>
<defs>
<filter id="filter0_ii_919_2680" x="17" y="18" width="167" height="162.731" filterUnits="userSpaceOnUse" color-interpolation-filters="sRGB">
<feFlood flood-opacity="0" result="BackgroundImageFix"/>
<feBlend mode="normal" in="SourceGraphic" in2="BackgroundImageFix" result="shape"/>
<feColorMatrix in="SourceAlpha" type="matrix" values="0 0 0 0 0 0 0 0 0 0 0 0 0 0 0 0 0 0 127 0" result="hardAlpha"/>
<feOffset dx="-16" dy="-12"/>
<feComposite in2="hardAlpha" operator="arithmetic" k2="-1" k3="1"/>
<feColorMatrix type="matrix" values="0 0 0 0 0.803922 0 0 0 0 0.905882 0 0 0 0 1 0 0 0 1 0"/>
<feBlend mode="normal" in2="shape" result="effect1_innerShadow_919_2680"/>
<feColorMatrix in="SourceAlpha" type="matrix" values="0 0 0 0 0 0 0 0 0 0 0 0 0 0 0 0 0 0 127 0" result="hardAlpha"/>
<feOffset dx="15" dy="14"/>
<feComposite in2="hardAlpha" operator="arithmetic" k2="-1" k3="1"/>
<feColorMatrix type="matrix" values="0 0 0 0 0.803922 0 0 0 0 0.905882 0 0 0 0 1 0 0 0 1 0"/>
<feBlend mode="normal" in2="effect1_innerShadow_919_2680" result="effect2_innerShadow_919_2680"/>
</filter>
<filter id="filter1_i_919_2680" x="64.877" y="44.3899" width="80.1499" height="117.537" filterUnits="userSpaceOnUse" color-interpolation-filters="sRGB">
<feFlood flood-opacity="0" result="BackgroundImageFix"/>
<feBlend mode="normal" in="SourceGraphic" in2="BackgroundImageFix" result="shape"/>
<feColorMatrix in="SourceAlpha" type="matrix" values="0 0 0 0 0 0 0 0 0 0 0 0 0 0 0 0 0 0 127 0" result="hardAlpha"/>
<feOffset dx="-16" dy="2"/>
<feComposite in2="hardAlpha" operator="arithmetic" k2="-1" k3="1"/>
<feColorMatrix type="matrix" values="0 0 0 0 0.921569 0 0 0 0 0.964706 0 0 0 0 1 0 0 0 1 0"/>
<feBlend mode="normal" in2="shape" result="effect1_innerShadow_919_2680"/>
</filter>
</defs>
</svg>
