<svg width="24" height="24" viewBox="0 0 24 24" fill="none" xmlns="http://www.w3.org/2000/svg">
<path d="M21.0038 2.61084L13.1998 8.43117L14.643 4.99725L21.0038 2.61084Z" fill="#E2761B"/>
<path d="M2.98796 2.61084L10.7291 8.4863L9.35659 4.99725L2.98796 2.61084ZM18.1958 16.1024L16.1174 19.3L20.5644 20.5286L21.8429 16.1732L18.1958 16.1024ZM2.16443 16.1732L3.43502 20.5286L7.88208 19.3L5.80364 16.1024L2.16443 16.1732Z" fill="#E4761B"/>
<path d="M7.63118 10.6995L6.39197 12.5818L10.8077 12.7787L10.6508 8.01375L7.63118 10.6995ZM16.3606 10.6995L13.3018 7.95862L13.1998 12.7787L17.6077 12.5818L16.3606 10.6995ZM7.88216 19.3L10.5331 18.0005L8.24295 16.2047L7.88216 19.3ZM13.4586 18.0005L16.1175 19.3L15.7488 16.2047L13.4586 18.0005Z" fill="#E4761B"/>
<path d="M16.1174 19.3L13.4585 18.0005L13.6703 19.7411L13.6468 20.4735L16.1174 19.3ZM7.88208 19.3L10.3527 20.4735L10.337 19.7411L10.5331 18.0005L7.88208 19.3Z" fill="#D7C1B3"/>
<path d="M10.3919 15.0549L8.18018 14.4012L9.74096 13.6844L10.3919 15.0549ZM13.5998 15.0549L14.2508 13.6844L15.8194 14.4012L13.5998 15.0549Z" fill="#233447"/>
<path d="M7.88214 19.3L8.25861 16.1023L5.80371 16.1732L7.88214 19.3ZM15.741 16.1023L16.1174 19.3L18.1959 16.1732L15.741 16.1023ZM17.6076 12.5818L13.1998 12.7787L13.6076 15.0548L14.2586 13.6844L15.8272 14.4011L17.6076 12.5818ZM8.18018 14.4011L9.74881 13.6844L10.3919 15.0548L10.8076 12.7787L6.39195 12.5818L8.18018 14.4011Z" fill="#CD6116"/>
<path d="M6.39197 12.5818L8.24295 16.2047L8.1802 14.4011L6.39197 12.5818ZM15.8273 14.4011L15.7488 16.2047L17.6077 12.5818L15.8273 14.4011ZM10.8077 12.7787L10.392 15.0548L10.9096 17.7405L11.0273 14.2042L10.8077 12.7787ZM13.1998 12.7787L12.988 14.1964L13.0822 17.7405L13.6077 15.0548L13.1998 12.7787Z" fill="#E4751F"/>
<path d="M13.6076 15.0548L13.0821 17.7405L13.4586 18.0004L15.7488 16.2047L15.8272 14.4011L13.6076 15.0548ZM8.18018 14.4011L8.24292 16.2047L10.5331 18.0004L10.9096 17.7405L10.3919 15.0548L8.18018 14.4011Z" fill="#F6851B"/>
<path d="M13.6468 20.4736L13.6703 19.7411L13.4742 19.5678H10.5174L10.337 19.7411L10.3527 20.4736L7.88208 19.3L8.74483 20.0089L10.4938 21.2297H13.4978L15.2546 20.0089L16.1174 19.3L13.6468 20.4736Z" fill="#C0AD9E"/>
<path d="M13.4586 18.0005L13.0821 17.7406H10.9096L10.5331 18.0005L10.337 19.7411L10.5174 19.5678H13.4743L13.6704 19.7411L13.4586 18.0005Z" fill="#161616"/>
<path d="M21.3331 8.80922L21.9998 5.59583L21.0037 2.61084L13.4586 8.23427L16.3605 10.6994L20.4625 11.9045L21.3723 10.8412L20.9801 10.5577L21.6076 9.98273L21.1213 9.60469L21.7488 9.12425L21.3331 8.80922ZM1.99976 5.59583L2.66642 8.80922L2.24289 9.12425L2.87034 9.60469L2.39191 9.98273L3.01936 10.5577L2.62721 10.8412L3.52917 11.9045L7.63113 10.6994L10.5331 8.23427L2.98799 2.61084L1.99976 5.59583Z" fill="#763D16"/>
<path d="M20.4625 11.9044L16.3605 10.6994L17.6076 12.5817L15.7487 16.2047L18.1958 16.1732H21.8429L20.4625 11.9044ZM7.6311 10.6994L3.52913 11.9044L2.16443 16.1732H5.80364L8.24286 16.2047L6.39188 12.5817L7.6311 10.6994ZM13.1997 12.7786L13.4585 8.23421L14.6507 4.99719H9.35659L10.5331 8.23421L10.8076 12.7786L10.9017 14.2121L10.9095 17.7405H13.0821L13.0978 14.2121L13.1997 12.7786Z" fill="#F6851B"/>
</svg>
