<svg width="50" height="50" viewBox="0 0 50 50" fill="none" xmlns="http://www.w3.org/2000/svg">
<path d="M39.0624 18.75H37.8906C37.6757 18.75 37.4999 18.5743 37.4999 18.3594V12.5977C37.4999 5.69831 31.8554 -0.0243362 24.9511 7.78285e-05C18.0713 0.0244918 12.5 5.61042 12.5 12.5001V18.3594C12.5 18.5743 12.3242 18.75 12.1094 18.75H10.9375C8.34961 18.75 6.25 20.8497 6.25 23.4375V45.3125C6.25 47.9004 8.34961 50 10.9375 50H39.0624C41.6503 50 43.7499 47.9004 43.7499 45.3125V23.4375C43.7499 20.8497 41.6503 18.75 39.0624 18.75ZM27.8173 36.5576C27.0361 37.1485 26.5625 38.0567 26.5625 39.0381V42.1875C26.5625 43.042 25.8691 43.7402 25.0195 43.75C24.1504 43.7598 23.4375 43.0274 23.4375 42.1533V39.0625C23.4375 38.0762 22.9687 37.1533 22.1777 36.5576C21.0449 35.7031 20.3125 34.3408 20.3125 32.8125C20.3125 30.2637 22.3828 28.1592 24.9316 28.125C27.5537 28.086 29.6875 30.2002 29.6875 32.8125C29.6875 34.3408 28.955 35.7031 27.8173 36.5576ZM34.375 18.3594C34.375 18.5743 34.1992 18.75 33.9843 18.75H16.0156C15.8008 18.75 15.625 18.5743 15.625 18.3594V12.5001C15.625 9.99518 16.6015 7.64167 18.3691 5.86921C20.1416 4.10163 22.4951 3.12507 25 3.12507C27.5048 3.12507 29.8584 4.10163 31.6308 5.86921C33.3984 7.64167 34.375 9.99518 34.375 12.5001V18.3594Z" fill="white"/>
<path d="M23.4375 32.8125C23.4375 33.2269 23.6021 33.6244 23.8951 33.9174C24.1882 34.2104 24.5856 34.375 25 34.375C25.4144 34.375 25.8118 34.2104 26.1048 33.9174C26.3979 33.6244 26.5625 33.2269 26.5625 32.8125C26.5625 32.3981 26.3979 32.0007 26.1048 31.7077C25.8118 31.4146 25.4144 31.25 25 31.25C24.5856 31.25 24.1882 31.4146 23.8951 31.7077C23.6021 32.0007 23.4375 32.3981 23.4375 32.8125Z" fill="white"/>
</svg>
