<svg width="200" height="200" viewBox="0 0 200 200" fill="none" xmlns="http://www.w3.org/2000/svg">
<g filter="url(#filter0_ii_919_3480)">
<path d="M169 112.5C165 106 166.5 102.5 170.5 98L174.5 91.5C177.847 84.5 175 82.5 172.653 74.5C166.5 61 156.5 53 147.341 49V40.9963C144.723 30.8371 135.413 23 124.357 23C111.265 23 100.5 33.7397 100.5 46.8015C100.5 33.7397 91.4998 22.5 76.6427 23C67.5049 23.3075 65.9999 23.5 58.9999 31C58.9999 31 54.9999 36.4999 54.9999 40C54.9999 43.5 54.9999 41.5 55.4999 44.5C53.4999 47.5 33.9999 61 30.965 67.5L28.9999 86C30.965 93.5 31.0001 91.5 34.4999 97C33 101 30.4999 104.5 25.9999 111.5C24.5 118 25.9998 122.097 25.9998 125C25.9998 132.837 28.9999 136.363 32.4999 142L40.5 152.5C41.067 153.067 49.5 155 52 155.5C55 157 60.6339 160.567 61.5 161C65.5 174 67 178.5 79 179C91 179.5 93.9999 174.5 106.5 168C113 176.5 112.927 177.357 117 178C136 181 136 172 142.5 158.5C143.222 157 136.082 152.822 135.5 150.5C135.5 150.5 136 154 150 154C164 154 173.5 137.337 173.5 129.5C173.5 126.597 171.164 120.822 170 118.5C168.5 115.507 170.5 114 169 112.5Z" fill="#76B4FF"/>
</g>
<path d="M68 64C60.8 56 46 66.5 38.5 70L28.5 77.5L33 64L44.5 55.5L64.5 54C68.6667 60.6667 75.2 72 68 64Z" fill="#CDE7FF"/>
<path d="M66.5 140.5C59.3 148.5 44.5 138 37 134.5L27 127L31.5 140.5L43 149L63 150.5C67.1667 143.833 73.7 132.5 66.5 140.5Z" fill="#CDE7FF"/>
<path d="M163.5 59.5C171.49 66.7106 149.5 58.5 142 61C134.5 63.5 127 71.5 127 71.5L131.5 58L143 49.5L149.5 52C155.5 54 161.838 58 163.5 59.5Z" fill="#CDE7FF"/>
<path d="M72.2825 68.6764C71.2559 54.8176 60.9901 53.791 54.8307 53.2777M54.8307 53.2777C51.315 52.6651 46.843 53.8451 42.5 56.3324C40.4317 57.5169 39.3926 59.7748 37.5 61.5C35.6587 63.1784 32.956 64.3111 31.5 66.4033C25.3429 75.2508 23.5954 87.3669 34.4202 99.1023C36.2741 101.112 35.2138 105.534 33.2316 107.417C29.3483 111.107 27.2941 117.589 27.3898 124.5C27.4576 129.399 30.1566 133.514 32.5 138C34.388 141.615 35.501 145.822 39 148.18C43.5423 151.242 49.4924 152.875 56.9813 152.113M54.8307 53.2777C51.1451 44.2944 56.7933 34.1798 65.5181 28.5C68.7034 26.4263 72.2989 26.6205 76 26C79.4912 25.4147 83.0764 23.9197 86.5 25.0958C91.6582 26.8678 96.4496 30.8971 100 37.9614V53.9014C100 53.9014 98.5 55.5 98.5 58C98.5 60.5 100 61.8715 100 61.8715V69.8415V85.7816C100 85.7816 101.5 91.5 101 94C100.5 96.5 100 101.722 100 101.722V133.602C100 133.602 100 137 99 141.5C98 146 100 149.542 100 149.542V165.482C80.7467 189.494 58.5855 171.4 57.1193 152.113C63.5565 151.316 73.3173 147.209 73.3173 132.324" stroke="black" stroke-width="8" stroke-linecap="round" stroke-linejoin="round"/>
<path d="M69.716 87.1547C69.2027 93.8275 64.2751 106.557 48.6711 104.093" stroke="black" stroke-width="8" stroke-linecap="round"/>
<path d="M127.718 68.6764C128.744 54.8176 139.01 53.791 145.169 53.2777M145.169 53.2777C152.759 51.9554 164.804 58.9858 170.388 69.4884C172.481 73.4237 175.796 77.3465 175.5 82C175.294 85.2499 172.235 89.1124 170.388 92.5C169.189 94.6991 167.603 96.9088 165.577 99.1051C163.723 101.115 164.787 105.534 166.769 107.418C171.488 111.902 173.506 120.511 172.246 129C171.679 132.82 172.335 137.116 170.388 140.5C168.337 144.067 163.604 146.677 159.9 148.877C155.51 151.485 149.917 152.815 143.019 152.113M145.169 53.2777C147.253 48.1985 146.353 42.7578 143.6 37.9614C142.073 35.3 140.475 31.5927 138 29.5C135.899 27.7237 133.026 27.4584 130.5 26.3207C120.226 21.6939 107.41 23.2176 100 37.9614C100 37.9614 100.5 50.0554 99 53.2777C97.5 56.5 100 69.8415 100 69.8415V85.7816C100 85.7816 101.5 91 101 93.5C100.5 96 100 101.722 100 101.722V133.602C100 133.602 99.5 138 99 141.5C98.5 145 100 149.542 100 149.542V165.482C119.253 189.494 141.414 171.4 142.881 152.113C136.443 151.316 126.683 147.209 126.683 132.324" stroke="black" stroke-width="8" stroke-linecap="round" stroke-linejoin="round"/>
<path d="M130.284 87.1547C130.797 93.8275 135.725 106.557 151.329 104.093" stroke="black" stroke-width="8" stroke-linecap="round"/>
<path d="M161.091 64.8846C160.596 65.5765 160.245 66.3732 159.691 67.0195C158.524 68.381 157.261 69.6504 156.032 70.9515" stroke="black" stroke-width="6" stroke-linecap="round"/>
<path d="M154.383 59.128C153.294 60.2194 152.168 61.2549 151 62.2629" stroke="black" stroke-width="6" stroke-linecap="round"/>
<path d="M92 98.7325C93.2413 97.8185 94.5116 96.9655 95.8187 96.146" stroke="black" stroke-width="6" stroke-linecap="round"/>
<path d="M103.098 111C104.395 111.833 105.646 112.714 106.879 113.642" stroke="black" stroke-width="6" stroke-linecap="round"/>
<path d="M88.1855 172.055C88.0275 171.765 88.1155 171.427 88.0909 171.125C87.9967 169.969 87.5805 168.828 87.2237 167.697" stroke="black" stroke-width="6" stroke-linecap="round"/>
<path d="M77.0001 171.397C77.6749 168.976 78.1521 166.54 78.6393 164.065" stroke="black" stroke-width="6" stroke-linecap="round"/>
<defs>
<filter id="filter0_ii_919_3480" x="25.3333" y="22.9839" width="150.697" height="156.051" filterUnits="userSpaceOnUse" color-interpolation-filters="sRGB">
<feFlood flood-opacity="0" result="BackgroundImageFix"/>
<feBlend mode="normal" in="SourceGraphic" in2="BackgroundImageFix" result="shape"/>
<feColorMatrix in="SourceAlpha" type="matrix" values="0 0 0 0 0 0 0 0 0 0 0 0 0 0 0 0 0 0 127 0" result="hardAlpha"/>
<feOffset dx="-10" dy="-11"/>
<feComposite in2="hardAlpha" operator="arithmetic" k2="-1" k3="1"/>
<feColorMatrix type="matrix" values="0 0 0 0 0.803922 0 0 0 0 0.905882 0 0 0 0 1 0 0 0 1 0"/>
<feBlend mode="normal" in2="shape" result="effect1_innerShadow_919_3480"/>
<feColorMatrix in="SourceAlpha" type="matrix" values="0 0 0 0 0 0 0 0 0 0 0 0 0 0 0 0 0 0 127 0" result="hardAlpha"/>
<feOffset dx="1" dy="12"/>
<feComposite in2="hardAlpha" operator="arithmetic" k2="-1" k3="1"/>
<feColorMatrix type="matrix" values="0 0 0 0 0.803922 0 0 0 0 0.905882 0 0 0 0 1 0 0 0 1 0"/>
<feBlend mode="normal" in2="effect1_innerShadow_919_3480" result="effect2_innerShadow_919_3480"/>
</filter>
</defs>
</svg>
