<svg width="24" height="24" viewBox="0 0 24 24" fill="none" xmlns="http://www.w3.org/2000/svg">
<g clip-path="url(#clip0_287_314)">
<path d="M12 0C5.38202 0 0 5.37701 0 11.9888C0 16.741 2.78211 20.8586 6.80509 22.7969V22.8067H6.82479C8.39064 23.5594 10.1485 23.9825 12 23.9825C18.6179 23.9825 24 18.6055 24 11.9937C24 5.37701 18.6179 0 12 0ZM12 0.9839C18.0714 0.9839 23.0152 5.92307 23.0152 11.9888C23.0152 13.7303 22.6065 15.3833 21.8826 16.8493C20.297 16.0818 18.6869 15.5112 17.0619 15.1225V5.94275C17.0619 5.62298 16.8109 5.36717 16.4957 5.36717H14.4768H9.39023H7.37136C7.06114 5.36717 6.80509 5.62298 6.80509 5.94275V15.1669C5.22938 15.5554 3.66352 16.1162 2.12229 16.8542C1.39352 15.3833 0.984817 13.7352 0.984817 11.9888C0.984817 5.92307 5.92861 0.9839 12 0.9839ZM2.75749 17.961C4.06238 17.3167 5.41649 16.8198 6.81001 16.4754V21.6901C5.16045 20.8095 3.76693 19.5206 2.75749 17.961ZM9.39023 22.6789V10.3949C9.39023 8.97317 10.5572 7.79741 11.9507 7.79741C13.3442 7.79741 14.4768 8.94856 14.4768 10.3654C14.4768 10.3752 14.4719 10.3851 14.4719 10.3949H14.4768V14.6699C13.2901 14.5322 12.0985 14.4879 10.9069 14.5519L9.92696 15.9736C11.4534 15.8457 12.9405 15.8555 14.4079 16.0229C14.4226 16.0229 14.4325 16.0229 14.4473 16.0278C14.4571 16.0278 14.467 16.0278 14.4817 16.0327C14.7378 16.0622 15.6685 16.1802 16.5203 16.3918L14.4817 17.0854V22.7183C13.684 22.9002 12.8568 23.0035 12.0098 23.0035C11.0989 22.9937 10.2273 22.8806 9.39023 22.6789ZM17.057 21.759V16.5C18.4456 16.8493 19.8194 17.3609 21.1982 18.0299C20.1641 19.5993 18.7361 20.8882 17.057 21.759Z" fill="url(#paint0_linear_287_314)"/>
</g>
<defs>
<linearGradient id="paint0_linear_287_314" x1="0.375" y1="11.9913" x2="24.3757" y2="11.9587" gradientUnits="userSpaceOnUse">
<stop offset="0.0858" stop-color="#8D29C1"/>
<stop offset="0.2383" stop-color="#942BBB"/>
<stop offset="0.4667" stop-color="#A92FAC"/>
<stop offset="0.7413" stop-color="#CA3793"/>
<stop offset="1" stop-color="#F03F77"/>
</linearGradient>
<clipPath id="clip0_287_314">
<rect width="24" height="24" fill="white"/>
</clipPath>
</defs>
</svg>
