<svg width="200" height="200" viewBox="0 0 200 200" fill="none" xmlns="http://www.w3.org/2000/svg">
<mask id="mask0_1992_4792" style="mask-type:alpha" maskUnits="userSpaceOnUse" x="25" y="120" width="33" height="49">
<path d="M46.5684 169H36.533C30.4254 169 25.4531 164.028 25.4531 157.92V120.98H57.6483V157.92C57.6483 164.028 52.676 169 46.5684 169Z" fill="#D99BFF"/>
</mask>
<g mask="url(#mask0_1992_4792)">
<path d="M46.5684 169H36.533C30.4254 169 25.4531 164.028 25.4531 157.92V120.98H57.6483V157.92C57.6483 164.028 52.676 169 46.5684 169Z" fill="#D99BFF"/>
<path d="M45.5 156.5C47.9 152.9 46.5 136 45.5 128L55 125L56.5 135.5V155L52 166.5L34.5 166L33.5 161.5C36.5 161.333 43.1 160.1 45.5 156.5Z" fill="#FAE3F9"/>
<path d="M46.5684 165H36.533C32.6346 165 29.4531 161.819 29.4531 157.92V124.98H53.6483V157.92C53.6483 161.819 50.4669 165 46.5684 165Z" stroke="black" stroke-width="8"/>
</g>
<mask id="mask1_1992_4792" style="mask-type:alpha" maskUnits="userSpaceOnUse" x="15" y="60" width="55" height="70">
<path d="M69.1836 129.426H26.9756C20.8681 129.426 15.8958 124.453 15.8958 118.346V71.3927C15.8958 65.2852 20.8681 60.3129 26.9756 60.3129H69.1836V129.426Z" fill="#D99BFF"/>
</mask>
<g mask="url(#mask1_1992_4792)">
<path d="M69.1836 129.426H26.9756C20.8681 129.426 15.8958 124.453 15.8958 118.346V71.3927C15.8958 65.2852 20.8681 60.3129 26.9756 60.3129H69.1836V129.426Z" fill="#D99BFF"/>
<path d="M51 75C57 78.5 57.5 108.333 58 118.5L72.5 96V57L28 53V68C33.5 68.8333 43.5 70.625 51 75Z" fill="#FAE3F9"/>
<path d="M65.1836 125.426H26.9756C23.0772 125.426 19.8958 122.244 19.8958 118.346V71.3927C19.8958 67.4943 23.0772 64.3129 26.9756 64.3129H65.1836V125.426Z" stroke="black" stroke-width="8"/>
</g>
<g filter="url(#filter0_i_1992_4792)">
<path d="M142.52 124.158H121.404V70.8705H142.52C148.627 70.8705 153.599 75.8428 153.599 81.9504V113.078C153.599 119.186 148.65 124.158 142.52 124.158ZM169.175 92.2356H179.733C182.639 92.2356 185 94.5968 185 97.503C185 100.409 182.639 102.771 179.733 102.771H169.175C166.269 102.771 163.907 100.409 163.907 97.503C163.907 94.5968 166.269 92.2356 169.175 92.2356ZM172.512 119.322L181.64 124.59C184.16 126.043 185.023 129.267 183.57 131.787C182.117 134.307 178.892 135.17 176.372 133.717L167.245 128.449C164.725 126.996 163.862 123.772 165.315 121.252C166.768 118.732 169.992 117.869 172.512 119.322ZM167.245 66.5566L176.372 61.2891C178.892 59.836 182.117 60.6988 183.57 63.219C185.023 65.7392 184.16 68.9633 181.64 70.4164L172.512 75.6839C169.992 77.137 166.768 76.2742 165.315 73.754C163.862 71.2338 164.725 68.0097 167.245 66.5566Z" fill="#FAE45B"/>
</g>
<path d="M179.64 128.054L179.642 128.055C180.244 128.402 180.456 129.179 180.104 129.789C179.757 130.392 178.98 130.603 178.37 130.252L169.244 124.985L169.243 124.984C168.64 124.637 168.429 123.86 168.78 123.25C169.128 122.647 169.904 122.436 170.514 122.787L179.64 128.054ZM169.243 70.0219L169.244 70.0211L178.37 64.7544C178.98 64.4027 179.757 64.6143 180.104 65.217C180.456 65.8271 180.244 66.6036 179.642 66.9511L179.64 66.9519L170.514 72.2186C169.904 72.5704 169.128 72.3588 168.78 71.756C168.429 71.1459 168.64 70.3694 169.243 70.0219ZM142.52 120.158H125.404V74.8705H142.52C146.418 74.8705 149.599 78.0519 149.599 81.9504V113.078C149.599 116.982 146.435 120.158 142.52 120.158ZM169.175 96.2356H179.733C180.43 96.2356 181 96.806 181 97.503C181 98.2001 180.43 98.7705 179.733 98.7705H169.175C168.478 98.7705 167.907 98.2001 167.907 97.503C167.907 96.806 168.478 96.2356 169.175 96.2356Z" stroke="black" stroke-width="8"/>
<mask id="mask2_1992_4792" style="mask-type:alpha" maskUnits="userSpaceOnUse" x="58" y="30" width="75" height="136">
<path d="M121.323 165.079C119.325 165.079 117.35 164.534 115.624 163.512L58 128.933V62.2039L87.0506 46.7534L116.101 31.3029C121.482 28.4194 128.225 30.4855 131.086 35.8892C131.926 37.5012 132.38 39.2949 132.38 41.0886V153.976C132.403 160.106 127.431 165.079 121.323 165.079Z" fill="#D99BFF"/>
</mask>
<g mask="url(#mask2_1992_4792)">
<path d="M121.323 165.079C119.325 165.079 117.35 164.534 115.624 163.512L58 128.933V62.2039L87.0506 46.7534L116.101 31.3029C121.482 28.4194 128.225 30.4855 131.086 35.8892C131.926 37.5012 132.38 39.2949 132.38 41.0886V153.976C132.403 160.106 127.431 165.079 121.323 165.079Z" fill="#D99BFF"/>
<path d="M114 53C109 50.5 80.3333 60.1667 72.5 63.5L94.5 24.5L129 23.5L141.5 50V137.5L125 168.5L120.5 95.5C120.5 78.5 119 55.5 114 53Z" fill="#FAE3F9"/>
<path d="M117.979 34.8345L117.99 34.8286C121.406 32.9983 125.714 34.3059 127.545 37.7488C128.096 38.8105 128.38 39.9684 128.38 41.0886V153.976V153.983L128.38 153.991C128.395 157.903 125.219 161.079 121.323 161.079C120.053 161.079 118.784 160.732 117.672 160.076C117.669 160.074 117.666 160.072 117.662 160.07L62 126.668V64.607L88.9289 50.285L117.979 34.8345Z" stroke="black" stroke-width="8"/>
</g>
<path d="M46.4604 150.231H50.7101" stroke="black" stroke-width="8" stroke-linecap="round"/>
<path d="M90.4771 129.008C90.7796 129.915 93.2715 130.801 94.024 131.241C95.5581 132.139 97.6991 133.259 98.8452 134.67C99.3745 135.321 100.22 136.338 101.118 136.338" stroke="black" stroke-width="8" stroke-linecap="round"/>
<path d="M109.158 130.9C109.882 131.529 110.726 132.024 111.522 132.555" stroke="black" stroke-width="8" stroke-linecap="round"/>
<path d="M63.7568 74.8435H74.6592" stroke="black" stroke-width="8" stroke-linecap="round"/>
<path d="M63.3379 83.4396H67.9504" stroke="black" stroke-width="8" stroke-linecap="round"/>
<path d="M35.0229 68.5516V76.4149" stroke="black" stroke-width="8" stroke-linecap="round"/>
<path d="M44.1543 67.7906V69.5662" stroke="black" stroke-width="8" stroke-linecap="round"/>
<defs>
<filter id="filter0_i_1992_4792" x="121.404" y="60.5835" width="63.5957" height="73.8391" filterUnits="userSpaceOnUse" color-interpolation-filters="sRGB">
<feFlood flood-opacity="0" result="BackgroundImageFix"/>
<feBlend mode="normal" in="SourceGraphic" in2="BackgroundImageFix" result="shape"/>
<feColorMatrix in="SourceAlpha" type="matrix" values="0 0 0 0 0 0 0 0 0 0 0 0 0 0 0 0 0 0 127 0" result="hardAlpha"/>
<feOffset dx="-9" dy="17"/>
<feComposite in2="hardAlpha" operator="arithmetic" k2="-1" k3="1"/>
<feColorMatrix type="matrix" values="0 0 0 0 1 0 0 0 0 0.988235 0 0 0 0 0.913725 0 0 0 1 0"/>
<feBlend mode="normal" in2="shape" result="effect1_innerShadow_1992_4792"/>
</filter>
</defs>
</svg>
