<svg width="220" height="220" viewBox="0 0 220 220" fill="none" xmlns="http://www.w3.org/2000/svg">
<path d="M82.763 99.4833C75.9986 77.3299 73.1942 38.0078 108.13 36.0669C144.657 34.0376 140.768 78.6827 136.54 97.9613" stroke="#979797" stroke-width="24" stroke-linecap="round"/>
<g filter="url(#filter0_i_939_3230)">
<path d="M40.4381 154.419C40.4381 156.444 40.5528 163.315 40.6942 170.98C40.9052 182.418 50.2466 191.569 61.6857 191.569C72.8571 191.569 106.152 191.885 130.905 191.99C142.628 192.04 154.008 191.895 162.782 191.718C170.419 191.564 176.393 185.298 176.905 177.677C177.343 171.153 178 142.212 178 130.951C178 125.488 177.785 116.884 177.551 109.253C177.333 102.139 171.739 96.3836 164.638 95.9059C153.686 95.1693 126.086 94.8535 113.162 95.064C104.514 95.2049 73.8073 95.8955 52.4999 96.3845C46.0639 96.5322 40.4381 101.36 40.4381 107.798C40.4381 112.113 40 118.112 40 123.795C40 129.477 40.4381 149.473 40.4381 154.419Z" fill="#DADADA"/>
</g>
<path d="M41.0462 107.804L40 137.557L42.6154 149C43.8359 138.32 45.6546 119.74 48.3692 114.098C53.6 103.227 68.5949 99.9848 74 97.5055C69.8154 97.124 59.6677 96.59 52.5538 97.5055C45.44 98.4209 41.9179 104.753 41.0462 107.804Z" fill="#FAFAFA"/>
<path d="M175.372 172.916L177.124 127.368L172.744 109.85C170.701 126.2 167.655 154.644 163.109 163.281C154.35 179.924 129.24 184.887 120.189 188.683C127.196 189.267 144.189 190.085 156.102 188.683C168.014 187.282 173.912 177.588 175.372 172.916Z" fill="#FAFAFA"/>
<path d="M39.1168 165.135C38.8589 179.446 50.2377 191.544 64.5512 191.628C86.661 191.758 113.897 192.142 149.982 191.945M149.982 191.945C166.123 191.857 179.214 175.99 179.509 159.852C179.714 148.632 180.082 134.666 178.929 115.301M178.929 115.301C178.219 103.384 168.572 94.0269 156.643 93.5661C130.069 92.5397 101.649 93.0185 60.425 94.1276M60.425 94.1276C49.2327 94.4287 39.5092 102.315 39.0228 113.5C38.4317 127.096 39.5229 142.589 39.1168 165.135" stroke="#979797" stroke-width="8"/>
<path d="M82.763 99.4833C75.9986 77.3299 73.1942 38.0078 108.13 36.0669C144.657 34.0376 140.768 78.6827 136.54 97.9613" stroke="#DADADA" stroke-width="8" stroke-linecap="round"/>
<path d="M117.308 156.068C117.308 154.839 118.173 153.4 119.926 152.226C125.071 148.78 128.469 142.905 128.469 136.235C128.469 125.612 119.858 117 109.235 117C98.6116 117 90 125.612 90 136.235C90 142.574 93.0699 148.197 97.7912 151.696C99.3762 152.871 100.147 154.232 100.147 155.393V162.108C100.147 166.847 103.988 170.689 108.727 170.689C113.466 170.689 117.308 166.847 117.308 162.108V156.068Z" fill="#FAFAFA" stroke="#979797" stroke-width="6"/>
<defs>
<filter id="filter0_i_939_3230" x="40" y="95" width="138" height="97" filterUnits="userSpaceOnUse" color-interpolation-filters="sRGB">
<feFlood flood-opacity="0" result="BackgroundImageFix"/>
<feBlend mode="normal" in="SourceGraphic" in2="BackgroundImageFix" result="shape"/>
<feColorMatrix in="SourceAlpha" type="matrix" values="0 0 0 0 0 0 0 0 0 0 0 0 0 0 0 0 0 0 127 0" result="hardAlpha"/>
<feOffset dy="-15"/>
<feComposite in2="hardAlpha" operator="arithmetic" k2="-1" k3="1"/>
<feColorMatrix type="matrix" values="0 0 0 0 0.980392 0 0 0 0 0.980392 0 0 0 0 0.980392 0 0 0 1 0"/>
<feBlend mode="normal" in2="shape" result="effect1_innerShadow_939_3230"/>
</filter>
</defs>
</svg>
