<svg width="200" height="200" viewBox="0 0 200 200" fill="none" xmlns="http://www.w3.org/2000/svg">
<path d="M107.754 176.492C131.38 174.988 149.563 166.324 161.813 152.428C174.03 138.57 180 119.906 180 99C180 56.3482 144.279 22 100.5 22C56.7214 22 21 56.3482 21 99C21 120.042 28.1798 140.369 42.7942 155.007C57.4672 169.705 79.2714 178.304 107.754 176.492Z" fill="#F4BA4E" stroke="black" stroke-width="8"/>
<g filter="url(#filter0_ii_1495_4881)">
<path d="M163 99.1983C163 132.445 143.96 157.421 106.295 159.809C60.7649 162.695 38 132.445 38 99.1983C38 65.9517 65.9822 39 100.5 39C135.018 39 163 65.9517 163 99.1983Z" fill="#FAE45B"/>
</g>
<path d="M106.453 162.304C125.83 161.076 140.667 154.006 150.644 142.733C160.601 131.482 165.5 116.291 165.5 99.1983C165.5 64.4834 136.309 36.5 100.5 36.5C64.6907 36.5 35.5 64.4834 35.5 99.1983C35.5 116.377 41.3836 132.925 53.3078 144.823C65.2677 156.757 83.077 163.786 106.453 162.304Z" stroke="black" stroke-width="5"/>
<path d="M46.9998 149C45.2169 151.017 43.2709 152.597 41.2965 154.208" stroke="black" stroke-width="6" stroke-linecap="round"/>
<path d="M110.303 47.5223C110.163 44.6645 110.546 41.8546 110.929 38.9999" stroke="black" stroke-width="6" stroke-linecap="round"/>
<path d="M120.852 48.1286C120.815 45.5037 121.295 43.7262 121.776 41.9099" stroke="black" stroke-width="6" stroke-linecap="round"/>
<path d="M78.9999 158.104C81.0311 155.999 82.4531 153.799 83.9053 151.566" stroke="black" stroke-width="6" stroke-linecap="round"/>
<path d="M97.9998 75.5C97.9998 79.844 96.8863 82.8399 95.3204 84.705C93.7906 86.527 91.6422 87.5 88.9998 87.5C84.0475 87.5 79.1706 82.505 79.9745 75.859C80.6989 71.541 81.8275 68.3914 83.3331 66.3668C84.7446 64.4686 86.5162 63.5 88.9998 63.5C93.7037 63.5 97.9998 68.2586 97.9998 75.5Z" fill="#F4BA4E" stroke="black" stroke-width="5"/>
<path d="M81.5001 97.5C81.5001 104.591 76.8248 109.5 72.0001 109.5C69.227 109.5 66.6751 108.56 64.937 106.762C63.2526 105.02 62.0613 102.193 62.4798 97.8291C63.1963 93.5841 64.4294 90.4528 66.0355 88.4291C67.573 86.4919 69.4926 85.5 72.0001 85.5C76.8248 85.5 81.5001 90.409 81.5001 97.5Z" fill="#F4BA4E" stroke="black" stroke-width="5"/>
<path d="M122.51 75.2434C121.787 79.9833 120.55 83.0467 119.004 84.8972C117.551 86.6371 115.664 87.5 113 87.5C110.67 87.5 108.622 86.3002 107.064 84.0708C105.483 81.809 104.5 78.5804 104.5 75C104.5 71.4275 105.477 68.4967 106.997 66.5209C108.48 64.5911 110.519 63.5 113 63.5C117.978 63.5 122.881 68.0503 122.51 75.2434Z" fill="#F4BA4E" stroke="black" stroke-width="5"/>
<path d="M139.011 97.7769C139.386 105.1 134.844 109.5 130 109.5C125.175 109.5 120.5 104.591 120.5 97.5C120.5 90.409 125.175 85.5 130 85.5C132.484 85.5 134.255 86.4686 135.667 88.3668C137.163 90.3786 138.286 93.501 139.011 97.7769Z" fill="#F4BA4E" stroke="black" stroke-width="5"/>
<path d="M101.075 95.5C109.688 95.5 112.383 106.031 112.918 108.634C112.991 108.99 113.234 109.288 113.57 109.425C114.942 109.986 118.672 111.626 122 114.149C126.174 117.313 129.717 121.865 127.189 127.417C125.949 130.14 122.195 131.256 119.5 132C115.995 132.968 113.242 133.58 109.5 132.859C105.397 132.069 101.909 130.471 100.692 129.871C100.401 129.727 100.063 129.721 99.7661 129.854C97.988 130.647 91.4092 133.282 85 132C80 131 75.7046 130.914 74.3988 125.752C71.4272 114.004 85.1482 110.112 88.4312 109.357C88.8478 109.261 89.1676 108.934 89.256 108.516C89.8457 105.727 92.5867 95.5 101.075 95.5Z" fill="#F4BA4E" stroke="black" stroke-width="5"/>
<defs>
<filter id="filter0_ii_1495_4881" x="33" y="34" width="135" height="131" filterUnits="userSpaceOnUse" color-interpolation-filters="sRGB">
<feFlood flood-opacity="0" result="BackgroundImageFix"/>
<feBlend mode="normal" in="SourceGraphic" in2="BackgroundImageFix" result="shape"/>
<feColorMatrix in="SourceAlpha" type="matrix" values="0 0 0 0 0 0 0 0 0 0 0 0 0 0 0 0 0 0 127 0" result="hardAlpha"/>
<feOffset dx="-14" dy="-5"/>
<feComposite in2="hardAlpha" operator="arithmetic" k2="-1" k3="1"/>
<feColorMatrix type="matrix" values="0 0 0 0 1 0 0 0 0 0.988235 0 0 0 0 0.913725 0 0 0 1 0"/>
<feBlend mode="normal" in2="shape" result="effect1_innerShadow_1495_4881"/>
<feColorMatrix in="SourceAlpha" type="matrix" values="0 0 0 0 0 0 0 0 0 0 0 0 0 0 0 0 0 0 127 0" result="hardAlpha"/>
<feOffset dx="12" dy="4"/>
<feComposite in2="hardAlpha" operator="arithmetic" k2="-1" k3="1"/>
<feColorMatrix type="matrix" values="0 0 0 0 1 0 0 0 0 0.988235 0 0 0 0 0.913725 0 0 0 1 0"/>
<feBlend mode="normal" in2="effect1_innerShadow_1495_4881" result="effect2_innerShadow_1495_4881"/>
</filter>
</defs>
</svg>
