<svg width="30" height="30" viewBox="0 0 30 30" fill="none" xmlns="http://www.w3.org/2000/svg">
<path fill-rule="evenodd" clip-rule="evenodd" d="M2.54631 14.1166C10.2982 10.7392 15.4673 8.51267 18.0537 7.43691C25.4383 4.36539 26.9728 3.83183 27.9729 3.81421C28.1929 3.81034 28.6847 3.86485 29.0033 4.12337C29.2723 4.34166 29.3463 4.63653 29.3818 4.84349C29.4172 5.05045 29.4613 5.52191 29.4262 5.89029C29.0261 10.095 27.2945 20.2986 26.4136 25.0079C26.0408 27.0006 25.3069 27.6688 24.5963 27.7341C23.0521 27.8762 21.8795 26.7136 20.3839 25.7332C18.0435 24.1991 16.7214 23.2441 14.4497 21.7471C11.8243 20.017 13.5262 19.0661 15.0224 17.5121C15.414 17.1054 22.2177 10.9169 22.3494 10.3555C22.3659 10.2852 22.3812 10.0235 22.2257 9.88533C22.0702 9.74713 21.8407 9.79439 21.6751 9.83197C21.4404 9.88525 17.7016 12.3564 10.4588 17.2455C9.39759 17.9742 8.43635 18.3293 7.57512 18.3107C6.62568 18.2902 4.79934 17.7739 3.44164 17.3325C1.77637 16.7912 0.452843 16.505 0.568092 15.5857C0.628121 15.1069 1.28753 14.6172 2.54631 14.1166Z" fill="black"/>
</svg>
