<svg width="40" height="40" viewBox="0 0 40 40" fill="none" xmlns="http://www.w3.org/2000/svg">
<g clip-path="url(#clip0_419_1538)">
<path d="M16.3333 18.3333C17.4378 18.3333 18.3333 17.4378 18.3333 16.3333V9.99992C18.3333 9.07944 19.0794 8.33325 19.9999 8.33325C20.9204 8.33325 21.6666 9.07944 21.6666 9.99992V16.3333C21.6666 17.4378 22.562 18.3333 23.6666 18.3333H29.9999C30.9204 18.3333 31.6666 19.0794 31.6666 19.9999C31.6666 20.9204 30.9204 21.6666 29.9999 21.6666H23.6666C22.562 21.6666 21.6666 22.562 21.6666 23.6666V29.9999C21.6666 30.9204 20.9204 31.6666 19.9999 31.6666C19.0794 31.6666 18.3333 30.9204 18.3333 29.9999V23.6666C18.3333 22.562 17.4378 21.6666 16.3333 21.6666H9.99992C9.07944 21.6666 8.33325 20.9204 8.33325 19.9999C8.33325 19.0794 9.07944 18.3333 9.99992 18.3333H16.3333Z" fill="#979797"/>
</g>
<defs>
<clipPath id="clip0_419_1538">
<rect width="40" height="40" fill="white"/>
</clipPath>
</defs>
</svg>
