<svg width="200" height="200" viewBox="0 0 200 200" fill="none" xmlns="http://www.w3.org/2000/svg">
<path d="M61.61 146.887L61.6104 146.886C61.674 146.68 63.3079 141.459 68.8387 128.889C72.3454 120.919 73.1807 114.749 73.3656 111.743C71.3633 110.928 66.8526 109.717 58.129 109.998C53.6167 110.143 50.144 110.3 47.4933 110.447L47.2747 106.519L47.4933 110.447C44.1625 110.633 41.4183 108.817 39.8955 106.545C38.3684 104.265 37.7245 100.996 39.2911 97.9643L39.2911 97.9643C39.4959 97.5679 39.7254 97.2042 39.9693 96.8701L39.9694 96.87C40.6412 95.9499 43.1667 92.4186 46.0449 87.4845C48.7523 82.8432 50.1725 78.5038 50.5478 77.2645C50.6685 76.8659 50.8193 76.4333 51.0169 75.9837L54.7917 67.395L58.4537 69.0044L54.7917 67.395C54.8169 67.3378 54.8432 67.2791 54.8729 67.2153L61.61 146.887ZM61.61 146.887L61.6091 146.89M61.61 146.887L61.6091 146.89M61.6091 146.89L61.6087 146.891M61.6091 146.89L61.6087 146.891M61.6087 146.891L56.3345 163.908C53.2988 173.703 65.215 181.176 72.7105 174.178L84.1364 163.511C84.1421 163.506 84.1476 163.501 84.153 163.496C84.1693 163.481 84.1849 163.467 84.2021 163.452L81.594 160.419L84.2021 163.452C85.0728 162.703 91.6782 157.005 98.7293 150.424C105.943 143.692 112.216 137.246 112.81 136.634L112.81 136.634C112.821 136.623 112.827 136.617 112.84 136.604L112.84 136.604C113.783 135.674 128.543 121.114 135.328 114.328C138.544 111.113 146.252 104.163 153.582 97.6476C161.028 91.0297 155.303 78.6342 145.372 80.1847L140.567 80.9348C139.764 81.0602 139.025 81.2764 138.361 81.5278C136.953 82.0613 133.408 83.285 129.656 83.7276C125.688 84.1959 122.838 83.6372 121.37 82.2125C121.37 82.2102 121.37 82.2078 121.37 82.2054C121.364 81.9901 121.43 81.4695 121.823 80.5778C122.621 78.7712 124.283 76.4937 126.487 74.0433C130.828 69.2176 136.311 64.7582 137.765 63.6025C138.171 63.2797 138.565 62.9207 138.949 62.4939C140.108 61.2071 144.163 56.5971 146.943 51.8989C149.872 46.9487 152.722 41.9263 152.963 41.5017L152.964 41.5011L152.97 41.4896L152.978 41.4754L152.99 41.4548L152.99 41.4544C155.444 37.1661 153.382 32.9676 150.886 30.5324C148.354 28.0636 144.586 26.381 140.703 26.1442L86.409 22.833C81.787 22.5511 76.7973 24.4776 74.4922 28.6543C74.326 28.9555 74.2075 29.2272 74.1395 29.3856C73.6877 30.4391 71.6903 34.9517 69.7451 37.675C67.211 41.2227 65.0072 46.9531 64.5511 48.1629C64.514 48.2612 64.4844 48.3289 64.4577 48.3838L64.4577 48.3839C63.6868 49.968 60.2962 56.8984 59.07 58.942C57.5216 61.5227 55.0981 66.7306 54.8729 67.2152L61.6087 146.891ZM73.3813 111.432C73.3813 111.432 73.3815 111.433 73.3816 111.435C73.3813 111.433 73.3812 111.432 73.3813 111.432Z" fill="#76B4FF" stroke="black" stroke-width="8"/>
<mask id="mask0_1495_4141" style="mask-type:alpha" maskUnits="userSpaceOnUse" x="34" y="18" width="127" height="163">
<path d="M61.61 146.887L61.6104 146.886C61.674 146.68 63.3079 141.459 68.8387 128.889C72.3454 120.919 73.1807 114.749 73.3656 111.743C71.3633 110.928 66.8526 109.717 58.129 109.998C53.6167 110.143 50.144 110.3 47.4933 110.447L47.2747 106.519L47.4933 110.447C44.1625 110.633 41.4183 108.817 39.8955 106.545C38.3684 104.265 37.7245 100.996 39.2911 97.9643L39.2911 97.9643C39.4959 97.5679 39.7254 97.2042 39.9693 96.8701L39.9694 96.87C40.6412 95.9499 43.1667 92.4186 46.0449 87.4845C48.7523 82.8432 50.1725 78.5038 50.5478 77.2645C50.6685 76.8659 50.8193 76.4333 51.0169 75.9837L54.7917 67.395L58.4537 69.0044L54.7917 67.395C54.8169 67.3378 54.8432 67.2791 54.8729 67.2153L61.61 146.887ZM61.61 146.887L61.6091 146.89M61.61 146.887L61.6091 146.89M61.6091 146.89L61.6087 146.891M61.6091 146.89L61.6087 146.891M61.6087 146.891L56.3345 163.908C53.2988 173.703 65.215 181.176 72.7105 174.178L84.1364 163.511C84.1421 163.506 84.1476 163.501 84.153 163.496C84.1693 163.481 84.1849 163.467 84.2021 163.452L81.594 160.419L84.2021 163.452C85.0728 162.703 91.6782 157.005 98.7293 150.424C105.943 143.692 112.216 137.246 112.81 136.634L112.81 136.634C112.821 136.623 112.827 136.617 112.84 136.604L112.84 136.604C113.783 135.674 128.543 121.114 135.328 114.328C138.544 111.113 146.252 104.163 153.582 97.6476C161.028 91.0297 155.303 78.6342 145.372 80.1847L140.567 80.9348C139.764 81.0602 139.025 81.2764 138.361 81.5278C136.953 82.0613 133.408 83.285 129.656 83.7276C125.688 84.1959 122.838 83.6372 121.37 82.2125C121.37 82.2102 121.37 82.2078 121.37 82.2054C121.364 81.9901 121.43 81.4695 121.823 80.5778C122.621 78.7712 124.283 76.4937 126.487 74.0433C130.828 69.2176 136.311 64.7582 137.765 63.6025C138.171 63.2797 138.565 62.9207 138.949 62.4939C140.108 61.2071 144.163 56.5971 146.943 51.8989C149.872 46.9487 152.722 41.9263 152.963 41.5017L152.964 41.5011L152.97 41.4896L152.978 41.4754L152.99 41.4548L152.99 41.4544C155.444 37.1661 153.382 32.9676 150.886 30.5324C148.354 28.0636 144.586 26.381 140.703 26.1442L86.409 22.833C81.787 22.5511 76.7973 24.4776 74.4922 28.6543C74.326 28.9555 74.2075 29.2272 74.1395 29.3856C73.6877 30.4391 71.6903 34.9517 69.7451 37.675C67.211 41.2227 65.0072 46.9531 64.5511 48.1629C64.514 48.2612 64.4844 48.3289 64.4577 48.3838L64.4577 48.3839C63.6868 49.968 60.2962 56.8984 59.07 58.942C57.5216 61.5227 55.0981 66.7306 54.8729 67.2152L61.6087 146.891ZM73.3813 111.432C73.3813 111.432 73.3815 111.433 73.3816 111.435C73.3813 111.433 73.3812 111.432 73.3813 111.432Z" fill="#76B4FF" stroke="black" stroke-width="8"/>
</mask>
<g mask="url(#mask0_1495_4141)">
<path d="M-12.06 37.3196L-14.0002 87.767L-9.14954 107.17C-6.88588 89.0605 -3.51271 57.5572 1.52201 47.9912C11.2234 29.5585 39.0341 24.0611 49.0589 19.8571C41.2978 19.2103 22.4771 18.3049 9.28314 19.8571C-3.91078 21.4093 -10.4431 32.1456 -12.06 37.3196Z" fill="#CDE7FF"/>
<path d="M107.119 155.85L165.5 82.5L123.5 86C161.5 86.6407 125.5 105.5 112.5 119C98.5342 133.503 69 177.5 61.5 150C59.5 156.5 51.3058 183.552 64.4998 182C77.6937 180.448 105.502 161.024 107.119 155.85Z" fill="#CDE7FF"/>
<path d="M47.3301 62.0628L104.739 -12.0512L119.5 27.5C92.5 29 89.5344 29.8648 80 46C67 68 44.5 99.5 67.4999 107.5C61.6598 110.985 33.6577 122.854 32.036 109.668C30.4143 96.4825 42.6873 64.8608 47.3301 62.0628Z" fill="#CDE7FF"/>
<path d="M90.2754 154.983C90.2702 154.557 90.0093 154.158 89.8731 153.765C89.3514 152.259 89.1395 150.659 88.8772 149.093" stroke="black" stroke-width="6" stroke-linecap="round"/>
<path d="M91.4207 31.1544C90.7058 29.0473 89.3683 25.7779 88 24" stroke="black" stroke-width="6" stroke-linecap="round"/>
<path d="M83.4453 38.2047C81.2782 35.5924 79.5566 33.5846 77.4832 31.5145" stroke="black" stroke-width="6" stroke-linecap="round"/>
<path d="M101.464 144.784C98.4671 141.864 95.8869 138.718 93.2608 135.526" stroke="black" stroke-width="6" stroke-linecap="round"/>
<path d="M61.61 146.887L61.6104 146.886C61.674 146.68 63.3079 141.459 68.8387 128.889C72.3454 120.919 73.1807 114.749 73.3656 111.743C71.3633 110.928 66.8526 109.717 58.129 109.998C53.6167 110.143 50.144 110.3 47.4933 110.447L47.2747 106.519L47.4933 110.447C44.1625 110.633 41.4183 108.817 39.8955 106.545C38.3684 104.265 37.7245 100.996 39.2911 97.9643L39.2911 97.9643C39.4959 97.5679 39.7254 97.2042 39.9693 96.8701L39.9694 96.87C40.6412 95.9499 43.1667 92.4186 46.0449 87.4845C48.7523 82.8432 50.1725 78.5038 50.5478 77.2645C50.6685 76.8659 50.8193 76.4333 51.0169 75.9837L54.7917 67.395L58.4537 69.0044L54.7917 67.395C54.8169 67.3378 54.8432 67.2791 54.8729 67.2153L61.61 146.887ZM61.61 146.887L61.6091 146.89M61.61 146.887L61.6091 146.89M61.6091 146.89L61.6087 146.891M61.6091 146.89L61.6087 146.891M61.6087 146.891L56.3345 163.908C53.2988 173.703 65.215 181.176 72.7105 174.178L84.1364 163.511C84.1421 163.506 84.1476 163.501 84.153 163.496C84.1693 163.481 84.1849 163.467 84.2021 163.452L81.594 160.419L84.2021 163.452C85.0728 162.703 91.6782 157.005 98.7293 150.424C105.943 143.692 112.216 137.246 112.81 136.634L112.81 136.634C112.821 136.623 112.827 136.617 112.84 136.604L112.84 136.604C113.783 135.674 128.543 121.114 135.328 114.328C138.544 111.113 146.252 104.163 153.582 97.6476C161.028 91.0297 155.303 78.6342 145.372 80.1847L140.567 80.9348C139.764 81.0602 139.025 81.2764 138.361 81.5278C136.953 82.0613 133.408 83.285 129.656 83.7276C125.688 84.1959 122.838 83.6372 121.37 82.2125C121.37 82.2102 121.37 82.2078 121.37 82.2054C121.364 81.9901 121.43 81.4695 121.823 80.5778C122.621 78.7712 124.283 76.4937 126.487 74.0433C130.828 69.2176 136.311 64.7582 137.765 63.6025C138.171 63.2797 138.565 62.9207 138.949 62.4939C140.108 61.2071 144.163 56.5971 146.943 51.8989C149.872 46.9487 152.722 41.9263 152.963 41.5017L152.964 41.5011L152.97 41.4896L152.978 41.4754L152.99 41.4548L152.99 41.4544C155.444 37.1661 153.382 32.9676 150.886 30.5324C148.354 28.0636 144.586 26.381 140.703 26.1442L86.409 22.833C81.787 22.5511 76.7973 24.4776 74.4922 28.6543C74.326 28.9555 74.2075 29.2272 74.1395 29.3856C73.6877 30.4391 71.6903 34.9517 69.7451 37.675C67.211 41.2227 65.0072 46.9531 64.5511 48.1629C64.514 48.2612 64.4844 48.3289 64.4577 48.3838L64.4577 48.3839C63.6868 49.968 60.2962 56.8984 59.07 58.942C57.5216 61.5227 55.0981 66.7306 54.8729 67.2152L61.6087 146.891ZM73.3813 111.432C73.3813 111.432 73.3815 111.433 73.3816 111.435C73.3813 111.433 73.3812 111.432 73.3813 111.432Z" stroke="black" stroke-width="8"/>
</g>
</svg>
