<svg width="200" height="200" viewBox="0 0 200 200" fill="none" xmlns="http://www.w3.org/2000/svg">
<path d="M42.7273 94.0909V48.1818H158.636V94.0909C160.909 96.2121 165.455 101.364 165.455 105C165.455 108.636 160.909 115.606 158.636 118.636V149.091L164.546 156.364V162.727L161.364 167.727L150.455 173.636L134.546 179.091L114.546 181.818H90.9091L67.7273 179.091L48.6364 173.636L36.8182 165.454L35.4546 157.727L42.7273 148.182V117.727C40.3031 114.697 35.4546 107.727 35.4546 104.091C35.4546 100.454 40.3031 95.909 42.7273 94.0909Z" fill="#BCF361"/>
<path d="M41.0135 62.3602L41.0135 96.3636L35.9092 107.727L45.4546 116.364C46.0538 111.364 42.4357 109.208 43.1819 104.545L45.5845 100.042C46.4699 98.7952 47.3107 97.5684 47.5464 96.3636C49.3699 87.0455 50.4406 77.5222 53.1819 71.8182C57.7274 62.3602 63.1819 59.0909 76.8183 57.7273C69.1282 57.0589 63.0732 50.2141 50.0001 51.8182C36.9269 53.4223 42.6156 57.0131 41.0135 62.3602Z" fill="#F3FFDF"/>
<path d="M159.441 62.3602L159.441 96.3636L164.545 107.727L155 116.364C154.401 111.364 158.019 109.208 157.273 104.545L154.87 100.042C153.985 98.7952 153.144 97.5684 152.908 96.3636C151.085 87.0455 150.014 77.5222 147.273 71.8182C142.727 62.3602 137.273 59.0909 123.636 57.7273C131.326 57.0589 137.381 50.2141 150.455 51.8182C163.528 53.4223 157.839 57.0131 159.441 62.3602Z" fill="#F3FFDF"/>
<path d="M164.182 39.5454C164.182 41.4063 163.166 43.6858 160.204 46.2541C157.251 48.8133 152.747 51.2996 146.835 53.4676C135.042 57.7917 118.484 60.5454 99.9999 60.5454C81.5161 60.5454 64.9582 57.7917 53.1651 53.4676C47.2526 51.2996 42.7484 48.8133 39.7963 46.2541C36.8336 43.6858 35.8181 41.4063 35.8181 39.5454C35.8181 37.6845 36.8336 35.405 39.7963 32.8367C42.7484 30.2775 47.2526 27.7912 53.1651 25.6232C64.9582 21.2991 81.5161 18.5454 99.9999 18.5454C118.484 18.5454 135.042 21.2991 146.835 25.6232C152.747 27.7912 157.251 30.2775 160.204 32.8367C163.166 35.405 164.182 37.6845 164.182 39.5454Z" fill="#878787" stroke="black" stroke-width="8"/>
<path d="M43.6303 149.091C38.4229 152.264 35.4546 155.922 35.4546 159.817C35.4546 171.968 64.3526 181.818 100 181.818C135.648 181.818 164.546 171.968 164.546 159.817C164.546 155.922 161.577 152.264 156.37 149.091" stroke="black" stroke-width="8"/>
<path d="M41.8182 48.6364V95C39.697 96.8182 35.4546 101.455 35.4546 105.455C35.4546 109.455 39.697 114.394 41.8182 116.364V151.818" stroke="black" stroke-width="8"/>
<path d="M158.182 48.6364V95C160.303 96.8182 164.545 101.455 164.545 105.455C164.545 109.455 160.303 114.394 158.182 116.364V151.818" stroke="black" stroke-width="8"/>
<path d="M92.5626 149.281C92.5626 149.281 61.979 142.609 75.6352 109.559C75.6352 109.559 78.7507 113.245 78.3093 115.011C78.3093 115.011 80.7498 106.677 85.9942 101.692C90.5116 97.4082 95.081 85.3617 90.8491 81C90.8491 81 111.775 85.3617 114.111 107.118C114.111 107.118 116.786 100.186 122.29 99.4852C122.29 99.4852 120.602 103.302 122.29 109.013C122.29 109.013 139.632 138.403 109.75 148.32C109.75 148.32 118.707 138.247 99.7023 120.982C99.7023 120.982 95.2368 130.225 92.5367 133.496C92.5626 133.496 85.0855 141.804 92.5626 149.281Z" fill="#F29450"/>
<path d="M92.1532 155.335C91.8514 155.335 91.5771 155.307 91.2754 155.253C90.6719 155.115 76.2431 151.851 69.6322 139.205C65.1061 130.565 65.4078 119.976 70.4826 107.687C71.0312 106.37 72.2382 105.41 73.6646 105.191C74.707 105.026 75.7219 105.273 76.5723 105.822C78.0261 103.161 79.9463 100.253 82.4151 97.9215C84.9388 95.535 87.9562 89.1984 88.0385 84.6448C88.0659 82.7247 87.5996 82.0663 87.435 81.9017C86.1732 80.6125 85.8989 78.6374 86.7767 77.0464C87.6544 75.4554 89.4375 74.6325 91.2205 74.9891C91.4674 75.0439 97.6394 76.3606 104.086 80.8045C110.148 84.974 114.482 90.5151 116.951 97.0986C118.597 95.8093 120.654 94.7669 123.095 94.4652C124.604 94.2732 126.113 94.8492 126.991 96.0836C127.868 97.2906 128.033 98.8267 127.375 100.171C127.238 100.527 126.387 103.106 127.43 107.001C129.021 109.881 136.208 124.118 131.325 137.121C128.39 144.993 121.751 150.672 111.629 154.046C109.819 154.649 107.761 154.018 106.774 152.4C105.786 150.809 105.924 148.806 107.24 147.462C107.734 146.804 112.068 140.248 100.849 128.151C99.1755 131.278 97.0359 135.036 95.3626 137.093C95.3352 137.148 95.2803 137.175 95.2529 137.23C95.1706 137.313 93.7442 139.013 93.0858 141.29C92.3452 143.924 92.9761 146.145 95.0883 148.258C96.3776 149.547 96.6519 151.549 95.7741 153.14C95.0334 154.539 93.6344 155.335 92.1532 155.335ZM75.5025 118.797C74.0486 125.243 74.5149 130.811 76.9289 135.392C78.8491 139.041 81.7293 141.647 84.5547 143.457V143.238C84.6096 137.559 87.9562 133.17 88.9986 131.909C90.8365 129.659 94.2928 123.103 96.0484 119.51C96.6244 118.33 97.6942 117.507 98.9835 117.26C100.245 117.014 101.562 117.37 102.522 118.248C113.604 128.343 116.622 136.682 116.704 142.662C120.051 140.412 122.382 137.614 123.617 134.295C127.512 123.899 120.133 110.869 120.051 110.759C119.886 110.458 119.749 110.156 119.639 109.827C119.392 109.031 119.228 108.236 119.063 107.495C118.926 107.742 118.844 107.961 118.761 108.153C118.076 109.936 116.265 110.979 114.4 110.732C112.507 110.485 111.053 108.976 110.861 107.083C109.572 95.0138 101.974 88.7321 96.213 85.6872C95.8015 91.9141 92.2629 99.8966 88.0659 103.874C84.1707 107.577 81.7019 113.969 81.071 116.136C80.4401 118.275 78.2182 119.537 76.0511 118.961C75.8591 118.934 75.6671 118.851 75.5025 118.797ZM95.2254 137.285C95.1706 137.367 95.0883 137.422 95.006 137.505C95.0334 137.505 95.0883 137.422 95.2254 137.285Z" fill="black"/>
<path d="M70.814 168.956V176.633" stroke="black" stroke-width="7" stroke-linecap="round"/>
<path d="M79.2214 175.17V180.288" stroke="black" stroke-width="7" stroke-linecap="round"/>
<path d="M125.279 172.612V180.654" stroke="black" stroke-width="7" stroke-linecap="round"/>
<path d="M66.4275 49.7908C64.8063 52.1326 62.9632 54.1606 61.6755 56.736" stroke="black" stroke-width="7" stroke-linecap="round"/>
<path d="M75.2006 51.984C75.1453 53.4204 74.9167 55.0287 74.4695 56.3705" stroke="black" stroke-width="7" stroke-linecap="round"/>
<path d="M121.624 22.0098C121.005 22.9374 119.282 26.2876 118.334 26.7618" stroke="black" stroke-width="7" stroke-linecap="round"/>
<path d="M130.031 24.203C129.159 25.5889 128.57 27.1263 127.838 28.5895" stroke="black" stroke-width="7" stroke-linecap="round"/>
</svg>
