<svg width="105" height="106" viewBox="0 0 105 106" fill="none" xmlns="http://www.w3.org/2000/svg">
<g filter="url(#filter0_d_1785_7732)">
<path fill-rule="evenodd" clip-rule="evenodd" d="M8 20C8 13.6487 13.1487 8.5 19.5 8.5H31C31.8284 8.5 32.5 9.17157 32.5 10C32.5 10.8284 31.8284 11.5 31 11.5H19.5C14.8056 11.5 11 15.3056 11 20V31.5C11 32.3284 10.3284 33 9.5 33C8.67157 33 8 32.3284 8 31.5V20ZM72.5 10C72.5 9.17157 73.1716 8.5 74 8.5H85.5C91.8513 8.5 97 13.6487 97 20V31.5C97 32.3284 96.3284 33 95.5 33C94.6716 33 94 32.3284 94 31.5V20C94 15.3056 90.1944 11.5 85.5 11.5H74C73.1716 11.5 72.5 10.8284 72.5 10ZM9.5 73C10.3284 73 11 73.6716 11 74.5V86C11 90.6944 14.8056 94.5 19.5 94.5H31C31.8284 94.5 32.5 95.1716 32.5 96C32.5 96.8284 31.8284 97.5 31 97.5H19.5C13.1487 97.5 8 92.3513 8 86V74.5C8 73.6716 8.67157 73 9.5 73ZM95.5 73C96.3284 73 97 73.6716 97 74.5V86C97 92.3513 91.8513 97.5 85.5 97.5H74C73.1716 97.5 72.5 96.8284 72.5 96C72.5 95.1716 73.1716 94.5 74 94.5H85.5C90.1944 94.5 94 90.6944 94 86V74.5C94 73.6716 94.6716 73 95.5 73Z" fill="white"/>
<path d="M19.5 7.5C12.5964 7.5 7 13.0964 7 20V31.5C7 32.8807 8.11929 34 9.5 34C10.8807 34 12 32.8807 12 31.5V20C12 15.8579 15.3579 12.5 19.5 12.5H31C32.3807 12.5 33.5 11.3807 33.5 10C33.5 8.61929 32.3807 7.5 31 7.5H19.5ZM74 7.5C72.6193 7.5 71.5 8.61929 71.5 10C71.5 11.3807 72.6193 12.5 74 12.5H85.5C89.6421 12.5 93 15.8579 93 20V31.5C93 32.8807 94.1193 34 95.5 34C96.8807 34 98 32.8807 98 31.5V20C98 13.0964 92.4036 7.5 85.5 7.5H74ZM12 74.5C12 73.1193 10.8807 72 9.5 72C8.11929 72 7 73.1193 7 74.5V86C7 92.9036 12.5964 98.5 19.5 98.5H31C32.3807 98.5 33.5 97.3807 33.5 96C33.5 94.6193 32.3807 93.5 31 93.5H19.5C15.3579 93.5 12 90.1421 12 86V74.5ZM98 74.5C98 73.1193 96.8807 72 95.5 72C94.1193 72 93 73.1193 93 74.5V86C93 90.1421 89.6421 93.5 85.5 93.5H74C72.6193 93.5 71.5 94.6193 71.5 96C71.5 97.3807 72.6193 98.5 74 98.5H85.5C92.4036 98.5 98 92.9036 98 86V74.5Z" stroke="#F09436" stroke-width="2" stroke-linecap="round"/>
</g>
<defs>
<filter id="filter0_d_1785_7732" x="0" y="0.5" width="105" height="105" filterUnits="userSpaceOnUse" color-interpolation-filters="sRGB">
<feFlood flood-opacity="0" result="BackgroundImageFix"/>
<feColorMatrix in="SourceAlpha" type="matrix" values="0 0 0 0 0 0 0 0 0 0 0 0 0 0 0 0 0 0 127 0" result="hardAlpha"/>
<feOffset/>
<feGaussianBlur stdDeviation="3"/>
<feComposite in2="hardAlpha" operator="out"/>
<feColorMatrix type="matrix" values="0 0 0 0 0.941176 0 0 0 0 0.580392 0 0 0 0 0.211765 0 0 0 1 0"/>
<feBlend mode="normal" in2="BackgroundImageFix" result="effect1_dropShadow_1785_7732"/>
<feBlend mode="normal" in="SourceGraphic" in2="effect1_dropShadow_1785_7732" result="shape"/>
</filter>
</defs>
</svg>
